<?xml version="1.0" encoding="utf-8"?>
<!-- Generator: Adobe Illustrator 23.0.1, SVG Export Plug-In . SVG Version: 6.00 Build 0)  -->
<svg version="1.1" id="Layer_1" xmlns="http://www.w3.org/2000/svg" xmlns:xlink="http://www.w3.org/1999/xlink" x="0px" y="0px"
	 viewBox="0 0 589 461" style="enable-background:new 0 0 589 461;" xml:space="preserve">
<style type="text/css">
	.st0{clip-path:url(#SVGID_2_);}
	
		.st1{fill-rule:evenodd;clip-rule:evenodd;fill:#D9E2F4;stroke:#96AEE5;stroke-width:1.2;stroke-linecap:round;stroke-linejoin:round;}
	
		.st2{fill-rule:evenodd;clip-rule:evenodd;fill:#FFFFFF;stroke:#96AEE5;stroke-width:1.2;stroke-linecap:round;stroke-linejoin:round;}
	.st3{fill-rule:evenodd;clip-rule:evenodd;fill:#373F97;stroke:#96AEE5;stroke-width:1.2;}
	.st4{fill-rule:evenodd;clip-rule:evenodd;fill:#CED9EE;}
	.st5{fill:none;stroke:#96AEE5;stroke-width:1.2;stroke-linecap:round;stroke-linejoin:round;}
	.st6{fill-rule:evenodd;clip-rule:evenodd;fill:#5077FF;}
	.st7{fill:none;stroke:#96AEE5;stroke-width:1.2;}
	.st8{fill:#FFFFFF;stroke:#96AEE5;stroke-width:1.2;stroke-linecap:round;stroke-linejoin:round;}
	.st9{fill:#FFFFFF;filter:url(#Adobe_OpacityMaskFilter);}
	.st10{mask:url(#mask0_2_);}
	.st11{fill:#D9E2F4;stroke:#96AEE5;stroke-width:1.2;stroke-linecap:round;stroke-linejoin:round;}
	.st12{fill-rule:evenodd;clip-rule:evenodd;fill:#373F97;}
	.st13{fill-rule:evenodd;clip-rule:evenodd;fill:#466FFF;}
	.st14{fill:#FFFFFF;filter:url(#Adobe_OpacityMaskFilter_1_);}
	.st15{mask:url(#mask1_2_);}
	.st16{fill:#D9E2F4;}
	.st17{fill-rule:evenodd;clip-rule:evenodd;fill:#3157D8;}
	.st18{fill:#FFFFFF;}
	.st19{fill:#373F97;}
	.st20{fill:#5077FF;}
	.st21{fill:#D6E0F2;}
	.st22{fill-rule:evenodd;clip-rule:evenodd;fill:#D9E2F4;stroke:#96AEE5;stroke-linecap:round;stroke-linejoin:round;}
	.st23{fill:#CED9EE;}
	.st24{fill:#FFFFFF;stroke:#96AEE5;stroke-linecap:round;stroke-linejoin:round;}
	.st25{fill-rule:evenodd;clip-rule:evenodd;fill:#01C392;}
	.st26{fill-rule:evenodd;clip-rule:evenodd;fill:#18EB9C;}
	.st27{fill-rule:evenodd;clip-rule:evenodd;fill:#FFFFFF;}
	.st28{opacity:0.7;fill:#FFFFFF;enable-background:new    ;}
	.st29{fill-rule:evenodd;clip-rule:evenodd;fill:#4339F2;}
	
		.st30{clip-path:url(#SVGID_4_);fill-rule:evenodd;clip-rule:evenodd;fill:#D9E2F4;stroke:#96AEE5;stroke-width:1.2;stroke-linecap:round;stroke-linejoin:round;}
	
		.st31{clip-path:url(#SVGID_4_);fill-rule:evenodd;clip-rule:evenodd;fill:#FFFFFF;stroke:#96AEE5;stroke-width:1.2;stroke-linecap:round;stroke-linejoin:round;}
	.st32{clip-path:url(#SVGID_4_);fill-rule:evenodd;clip-rule:evenodd;fill:#3CBF8A;stroke:#96AEE5;stroke-width:1.2;}
	.st33{clip-path:url(#SVGID_4_);fill-rule:evenodd;clip-rule:evenodd;fill:#CED9EE;}
	.st34{clip-path:url(#SVGID_4_);fill:none;stroke:#96AEE5;stroke-width:1.2;stroke-linecap:round;stroke-linejoin:round;}
	.st35{clip-path:url(#SVGID_4_);fill-rule:evenodd;clip-rule:evenodd;fill:#3CBF8A;}
	.st36{clip-path:url(#SVGID_4_);fill:none;stroke:#96AEE5;stroke-width:1.2;}
	.st37{clip-path:url(#SVGID_4_);fill:#FFFFFF;stroke:#96AEE5;stroke-width:1.2;stroke-linecap:round;stroke-linejoin:round;}
	.st38{clip-path:url(#SVGID_4_);fill:#FFFFFF;filter:url(#Adobe_OpacityMaskFilter_2_);}
	.st39{clip-path:url(#SVGID_4_);mask:url(#mask0_1_);}
	.st40{clip-path:url(#SVGID_4_);fill:#FFFFFF;filter:url(#Adobe_OpacityMaskFilter_3_);}
	.st41{clip-path:url(#SVGID_4_);mask:url(#mask1_1_);}
	.st42{clip-path:url(#SVGID_4_);fill:#D9E2F4;}
	.st43{clip-path:url(#SVGID_4_);fill-rule:evenodd;clip-rule:evenodd;fill:#3157D8;}
	.st44{clip-path:url(#SVGID_4_);fill-rule:evenodd;clip-rule:evenodd;fill:#FCBD2B;}
	.st45{clip-path:url(#SVGID_4_);fill:#FFFFFF;}
	.st46{clip-path:url(#SVGID_4_);fill:#373F97;}
	.st47{clip-path:url(#SVGID_4_);fill:#5077FF;}
	.st48{clip-path:url(#SVGID_4_);fill:#D6E0F2;}
	
		.st49{clip-path:url(#SVGID_4_);fill-rule:evenodd;clip-rule:evenodd;fill:#D9E2F4;stroke:#96AEE5;stroke-linecap:round;stroke-linejoin:round;}
	.st50{clip-path:url(#SVGID_4_);fill:#D9E2F4;stroke:#96AEE5;stroke-width:1.2;stroke-linecap:round;stroke-linejoin:round;}
	.st51{clip-path:url(#SVGID_4_);fill:#CED9EE;}
	.st52{clip-path:url(#SVGID_4_);fill:#FFFFFF;stroke:#96AEE5;stroke-linecap:round;stroke-linejoin:round;}
	.st53{clip-path:url(#SVGID_4_);fill-rule:evenodd;clip-rule:evenodd;fill:#FCBD2B;stroke:#96AEE5;stroke-width:1.2;}
	.st54{clip-path:url(#SVGID_4_);fill-rule:evenodd;clip-rule:evenodd;fill:#01C392;}
	.st55{clip-path:url(#SVGID_4_);fill-rule:evenodd;clip-rule:evenodd;fill:#18EB9C;}
	.st56{clip-path:url(#SVGID_4_);fill-rule:evenodd;clip-rule:evenodd;fill:#FFFFFF;}
	.st57{opacity:0.7;clip-path:url(#SVGID_4_);fill:#FFFFFF;enable-background:new    ;}
</style>
<g>
	<defs>
		<rect id="SVGID_1_" x="-621.9" width="589" height="461"/>
	</defs>
	<clipPath id="SVGID_2_">
		<use xlink:href="#SVGID_1_"  style="overflow:visible;"/>
	</clipPath>
	<g class="st0">
		<path class="st1" d="M-368,174.5c3.1-1.8,6.9-1.8,10,0l199.5,113.9l14.6,2.4v8.6c0.1,1.8-0.8,3.6-2.5,4.5l-114.3,66.7
			c-3.1,1.8-6.9,1.8-10.1,0l-210.1-121.7c-0.8-0.4-1.4-1.1-1.8-1.8c-0.4-0.7-0.7-1.6-0.7-2.4l0,0v-9.6l8.8,1.4L-368,174.5z"/>
		<path class="st2" d="M-260.7,361.6l114.3-66.7c2.4-1.4,3.2-4.5,1.8-6.8c-0.4-0.8-1.1-1.4-1.8-1.8L-358,165.4
			c-3.1-1.8-6.9-1.8-10,0l-112.8,65.8c-2.4,1.4-3.2,4.5-1.8,6.8c0.4,0.8,1.1,1.4,1.8,1.8l210.1,121.7
			C-267.6,363.4-263.8,363.4-260.7,361.6z"/>
		<path class="st1" d="M-391.4,273.4l24.1-13.5c1.8-1,4.1-1,5.9,0l55.3,31.4c1.4,0.8,1.9,2.6,1.1,4.1c-0.3,0.5-0.6,0.8-1.1,1.1
			l-24.5,14.3c-1.9,1.1-4.2,1.1-6.1,0l-55-32.1c-1.4-0.8-1.9-2.7-1.1-4.1C-392.2,274.1-391.9,273.7-391.4,273.4z"/>
		<path class="st1" d="M-409.5,219.3L-233.9,321c1.9,1.1,4.2,1.1,6,0l49.5-28.7c1.4-0.8,1.9-2.7,1.1-4.1c-0.3-0.5-0.6-0.8-1.1-1.1
			l-177.9-102.2c-1.9-1.1-4.2-1.1-6,0l-47.2,27.5c-1.9,1.1-2.6,3.6-1.4,5.5C-410.6,218.5-410.1,219-409.5,219.3z"/>
		<path class="st2" d="M-136.7,285.3l61.7-149.7c1.9-4.7,0.1-10-4.3-12.5L-289.1,4.3c-2.4-1.4-5.5-0.5-6.8,1.9
			c-0.1,0.2-0.2,0.3-0.2,0.5l-63.3,147.7c-2,4.7-0.2,10.1,4.2,12.6l211.4,120.7c2.4,1.4,5.5,0.5,6.8-1.9
			C-136.9,285.7-136.8,285.5-136.7,285.3z"/>
		<path class="st3" d="M-344.2,151.9L-290,23.5c0.9-2,3.2-3,5.2-2.1c0.2,0.1,0.3,0.1,0.5,0.2l188.9,109.8c3.5,2,4.9,6.3,3.4,10
			L-145.5,269c-0.9,2-3.2,3-5.2,2.1c-0.2-0.1-0.3-0.1-0.4-0.2L-340.8,162C-344.3,160-345.7,155.7-344.2,151.9z"/>
		<path class="st1" d="M-171.2,228.3l40.1-94.2l-130.1-75.6l-40,94.7L-171.2,228.3z"/>
		<path class="st2" d="M-184.2,232.3l40.1-94.2l-130.1-75.6l-40,94.7L-184.2,232.3z"/>
		<path class="st4" d="M-269.9,139.9l-2.4,4.7l62.9,36.7l2.3-4.5L-269.9,139.9z"/>
		<path class="st4" d="M-267.9,157.9l-2.4,4.7l45.8,26.2l2.3-4.5L-267.9,157.9z"/>
		<path class="st1" d="M-365,104.3l32.9-77L-379.3,1l-32.2,76.2L-365,104.3z"/>
		<path class="st2" d="M-378,108.3l32.9-77L-392.3,5l-32.2,76.2L-378,108.3z"/>
		<path class="st4" d="M-408.5,70.5l-1.8,4.6l26.7,15l1.7-4.2L-408.5,70.5z"/>
		<path class="st4" d="M-403.5,58.9l-1.9,4.6l26.8,15.2l2-4.4L-403.5,58.9z"/>
		<path class="st5" d="M-572.4,94.6l18.6-10.8c1.3-0.7,2.8-0.7,4.1,0l18.6,10.8c1,0.6,1.3,1.8,0.7,2.8c-0.2,0.3-0.4,0.6-0.7,0.7
			l-18.6,10.7c-1.3,0.7-2.8,0.7-4.1,0l-18.6-10.7c-1-0.6-1.3-1.8-0.8-2.8C-572.9,95-572.7,94.7-572.4,94.6z"/>
		<path class="st5" d="M-507.3,431.4l27.1-15.7c1.3-0.7,2.8-0.7,4.1,0l27,15.7c1,0.6,1.3,1.8,0.7,2.8c-0.2,0.3-0.4,0.6-0.7,0.7
			l-27,15.6c-1.3,0.7-2.8,0.7-4.1,0l-27.1-15.6c-1-0.6-1.3-1.8-0.8-2.8C-507.9,431.8-507.6,431.5-507.3,431.4z"/>
		<path class="st5" d="M-151.4,51.6l18.6-10.8c1.3-0.7,2.8-0.7,4.1,0l18.6,10.8c1,0.6,1.3,1.8,0.7,2.8c-0.2,0.3-0.4,0.6-0.7,0.7
			l-18.6,10.7c-1.3,0.7-2.8,0.7-4.1,0l-18.6-10.7c-1-0.6-1.3-1.8-0.8-2.8C-152,52-151.7,51.7-151.4,51.6z"/>
		<path class="st1" d="M-129.2,229.7l22.1-52.5l73.3,41.4l-22.8,53.6L-129.2,229.7z"/>
		<path class="st2" d="M-142.9,234.8l22.8-52.6l73.3,41.4l-22.8,53.6L-142.9,234.8z"/>
		<path class="st4" d="M-124,225.8l-1.8,4.6l47.4,26.5l1.7-4.2L-124,225.8z"/>
		<path class="st4" d="M-119,214.2l-1.9,4.6l47.4,26.7l2-4.4L-119,214.2z"/>
		<path class="st6" d="M-114,202.2l-1.9,4.7l23.1,13.2l2.2-4.3L-114,202.2z"/>
		<path class="st7" d="M-401.2,95.1l-9.9,19.2c-1.5,2.9-0.4,6.4,2.4,8l51.1,28.2"/>
		<path class="st7" d="M-133.7,278l17.3,10.1c2.9,1.7,6.5,0.7,8.2-2.2c0.1-0.2,0.3-0.5,0.4-0.7l9.9-24.1"/>
		<path class="st8" d="M-111.4,291.9c2.8,0,5-2.2,5-5c0-2.8-2.2-5-5-5c-2.8,0-5,2.2-5,5C-116.4,289.6-114.1,291.9-111.4,291.9z"/>
		<defs>
			<filter id="Adobe_OpacityMaskFilter" filterUnits="userSpaceOnUse" x="-398.7" y="389.7" width="104.3" height="70.3">
				<feColorMatrix  type="matrix" values="1 0 0 0 0  0 1 0 0 0  0 0 1 0 0  0 0 0 1 0"/>
			</filter>
		</defs>
		<mask maskUnits="userSpaceOnUse" x="-398.7" y="389.7" width="104.3" height="70.3" id="mask0_2_">
			<path class="st9" d="M-342.2,405.1l20.8,12.2l20.6,0l0,14.2c0.1,0.8-0.1,1.6-0.6,2.3c-0.4,0.6-0.9,1.1-1.5,1.5l-39.7,23
				c-2.5,1.5-5.7,1.5-8.2,0l-39.6-22.9c-1.5-0.9-2.3-2.6-2-4.2l0-13.8l20.8,0l21.1-12.2C-347.9,403.6-344.7,403.6-342.2,405.1z"/>
		</mask>
		<g class="st10">
			<path class="st11" d="M-342.2,405.1l20.8,12.2l20.6,0l0,14.2c0.1,0.8-0.1,1.6-0.6,2.3c-0.4,0.6-0.9,1.1-1.5,1.5l-39.7,23
				c-2.5,1.5-5.7,1.5-8.2,0l-39.6-22.9c-1.5-0.9-2.3-2.6-2-4.2l0-13.8l20.8,0l21.1-12.2C-347.9,403.6-344.7,403.6-342.2,405.1z"/>
			<path class="st7" d="M-396,417.9l45.6-26.5c2.6-1.5,5.7-1.5,8.3,0l45.1,26.5c1.9,1.1,2.6,3.7,1.5,5.6c-0.4,0.6-0.9,1.1-1.5,1.5
				l-45.4,26.3c-2.5,1.5-5.7,1.5-8.2,0L-396,425c-2-1.1-2.6-3.6-1.5-5.6C-397.1,418.8-396.6,418.3-396,417.9z"/>
			<path class="st12" d="M-335.8,446.3v2.2c0,0.5,0.4,0.8,0.8,0.8c0.1,0,0.3,0,0.4-0.1l9.2-5.1c0.5-0.3,0.9-0.9,0.9-1.5v-2.2
				c0-0.5-0.4-0.8-0.8-0.8c-0.1,0-0.3,0-0.4,0.1l-9.2,5.2C-335.5,445.1-335.8,445.7-335.8,446.3z"/>
			<path class="st12" d="M-319.9,437.1v2.2c0,0.5,0.4,0.8,0.8,0.8c0.1,0,0.3,0,0.4-0.1l9.2-5.1c0.5-0.3,0.9-0.9,0.9-1.5v-2.2
				c0-0.5-0.4-0.8-0.8-0.8c-0.1,0-0.3,0-0.4,0.1l-9.2,5.2C-319.5,435.9-319.9,436.5-319.9,437.1z"/>
			<path class="st13" d="M-383.2,429.5c1.4,0.8,2.6,2.8,2.6,4.5c0,1.7-1.2,2.3-2.6,1.5c-1.4-0.8-2.6-2.8-2.6-4.5
				C-385.8,429.3-384.7,428.6-383.2,429.5z"/>
			<path class="st13" d="M-374.6,434.6c1.4,0.8,2.6,2.8,2.6,4.5c0,1.7-1.2,2.3-2.6,1.5c-1.4-0.8-2.6-2.8-2.6-4.5
				C-377.2,434.4-376,433.7-374.6,434.6z"/>
		</g>
		<path class="st2" d="M-390.3,413.9l39.8-23.2c2.6-1.5,5.7-1.5,8.3,0l39.4,23.1c2,1.1,2.6,3.7,1.5,5.6c-0.4,0.6-0.9,1.1-1.5,1.5
			l-39.7,23c-2.5,1.5-5.7,1.5-8.2,0l-39.6-22.9c-2-1.1-2.6-3.6-1.5-5.6C-391.4,414.8-390.9,414.3-390.3,413.9z"/>
		<defs>
			<filter id="Adobe_OpacityMaskFilter_1_" filterUnits="userSpaceOnUse" x="-398.7" y="363.3" width="104.3" height="70.8">
				<feColorMatrix  type="matrix" values="1 0 0 0 0  0 1 0 0 0  0 0 1 0 0  0 0 0 1 0"/>
			</filter>
		</defs>
		<mask maskUnits="userSpaceOnUse" x="-398.7" y="363.3" width="104.3" height="70.8" id="mask1_2_">
			<path class="st14" d="M-342.2,379.2l20.8,12.2l20.6,0l0,14.2c0.1,0.8-0.1,1.6-0.6,2.3c-0.4,0.6-0.9,1.1-1.5,1.5l-39.7,23
				c-2.5,1.5-5.7,1.5-8.2,0l-39.6-22.9c-1.5-0.9-2.3-2.6-2-4.2l0-13.8l20.8,0l21.1-12.2C-347.9,377.7-344.7,377.7-342.2,379.2z"/>
		</mask>
		<g class="st15">
			<path class="st11" d="M-342.2,379.2l20.8,12.2l20.6,0l0,14.2c0.1,0.8-0.1,1.6-0.6,2.3c-0.4,0.6-0.9,1.1-1.5,1.5l-39.7,23
				c-2.5,1.5-5.7,1.5-8.2,0l-39.6-22.9c-1.5-0.9-2.3-2.6-2-4.2l0-13.8l20.8,0l21.1-12.2C-347.9,377.7-344.7,377.7-342.2,379.2z"/>
			<path class="st7" d="M-396,391.5l45.6-26.5c2.6-1.5,5.7-1.5,8.3,0l45.1,26.5c1.9,1.1,2.6,3.7,1.5,5.6c-0.4,0.6-0.9,1.1-1.5,1.5
				l-45.4,26.3c-2.5,1.5-5.7,1.5-8.2,0l-45.4-26.3c-2-1.1-2.6-3.6-1.5-5.6C-397.1,392.4-396.6,391.9-396,391.5z"/>
			<path class="st12" d="M-335.8,419.6v2.2c0,0.5,0.4,0.8,0.8,0.8c0.1,0,0.3,0,0.4-0.1l9.2-5.1c0.5-0.3,0.9-0.9,0.9-1.5v-2.2
				c0-0.5-0.4-0.8-0.8-0.8c-0.1,0-0.3,0-0.4,0.1l-9.2,5.2C-335.5,418.4-335.8,419-335.8,419.6z"/>
			<path class="st12" d="M-319.9,410.4v2.2c0,0.5,0.4,0.8,0.8,0.8c0.1,0,0.3,0,0.4-0.1l9.2-5.1c0.5-0.3,0.9-0.9,0.9-1.5v-2.2
				c0-0.5-0.4-0.8-0.8-0.8c-0.1,0-0.3,0-0.4,0.1l-9.2,5.2C-319.5,409.2-319.9,409.8-319.9,410.4z"/>
			<path class="st13" d="M-383.2,403.2c1.4,0.8,2.6,2.8,2.6,4.5c0,1.7-1.2,2.3-2.6,1.5c-1.4-0.8-2.6-2.8-2.6-4.5
				C-385.8,403-384.7,402.3-383.2,403.2z"/>
			<path class="st13" d="M-374.6,408.3c1.4,0.8,2.6,2.8,2.6,4.5c0,1.7-1.2,2.3-2.6,1.5c-1.4-0.8-2.6-2.8-2.6-4.5
				C-377.2,408.1-376,407.4-374.6,408.3z"/>
		</g>
		<path class="st2" d="M-390.3,388l39.8-23.2c2.6-1.5,5.7-1.5,8.3,0l39.4,23.1c2,1.1,2.6,3.7,1.5,5.6c-0.4,0.6-0.9,1.1-1.5,1.5
			l-39.7,23c-2.5,1.5-5.7,1.5-8.2,0l-39.6-22.9c-2-1.1-2.6-3.6-1.5-5.6C-391.4,388.9-390.9,388.4-390.3,388z"/>
		<path class="st16" d="M-346.5,401.9c8.7,0,15.8-3.8,15.8-8.4c0-4.6-7.1-8.4-15.8-8.4s-15.8,3.8-15.8,8.4
			C-362.4,398.2-355.3,401.9-346.5,401.9z"/>
		<path class="st17" d="M-344.1,394.5v-5c8.8-11.9,13.2-20.7,13.2-26.3c0-8.2-5.6-15.1-13.2-17.2v-0.6h-5.1
			c-9.6,0.3-17.3,8.1-17.3,17.8c0,6.3,5.5,16.5,16.4,30.7c0.1,0.1,0.2,0.2,0.3,0.3c0.3,0.2,0.7,0.3,1,0.3H-344.1z"/>
		<path class="st6" d="M-345.4,393.8c-11-14.2-16.4-24.4-16.4-30.7c0-9.8,8-17.8,17.8-17.8c9.8,0,17.8,8,17.8,17.8
			c0,6.3-5.5,16.5-16.4,30.7l0,0c-0.6,0.7-1.6,0.9-2.3,0.3C-345.2,394-345.3,393.9-345.4,393.8z"/>
		<path class="st18" d="M-344.1,369.4c-4.1,0-7.5-3.4-7.5-7.5c0-4.1,3.4-7.5,7.5-7.5s7.5,3.4,7.5,7.5
			C-336.6,366-339.9,369.4-344.1,369.4z"/>
		<path class="st1" d="M-535.2,294.3l56.7,33.2l25.3,3.4l0,13.6c0,0.7-0.2,1.4-0.5,2.1c-0.4,0.6-0.9,1.1-1.5,1.4l-47.6,27.4
			c-2.5,1.4-5.5,1.4-7.9,0l-81.6-46.1c-1.4-0.8-2.1-2.2-2-3.7l0,0v-14l16.8,2.3l34.4-19.7C-540.8,292.8-537.7,292.8-535.2,294.3z"/>
		<path class="st7" d="M-453.2,340l-49.7,29c-2.5,1.4-5.5,1.5-8,0l-83.5-47.6"/>
		<path class="st19" d="M-470.1,348.2v3.4l-20.3,12.2v-3.6L-470.1,348.2z"/>
		<path class="st19" d="M-574.4,331.4v3.4l43.8,24.9v-3.6L-574.4,331.4z"/>
		<path class="st2" d="M-592.4,308.5l49.1-28.2c2.5-1.4,5.6-1.4,8,0l80.1,46.9c1.9,1.1,2.5,3.6,1.4,5.5c-0.4,0.6-0.9,1.1-1.5,1.4
			l-47.6,27.4c-2.5,1.4-5.5,1.4-7.9,0l-81.6-46.1c-1.9-1.1-2.6-3.5-1.5-5.5C-593.5,309.3-593,308.8-592.4,308.5z"/>
		<path class="st20" d="M-503.8,312.9l31.4,17.8l-4.9,2.6l-31-17.6L-503.8,312.9z"/>
		<path class="st21" d="M-515.8,319.9l31.4,17.8l-4.9,2.6l-31-17.6L-515.8,319.9z"/>
		<path class="st21" d="M-528.8,326.9l31.4,17.8l-4.9,2.6l-31-17.6L-528.8,326.9z"/>
		<path class="st22" d="M-543.2,257.3l56.7,33.2l25.3,3.4l0,13.6c0,0.7-0.2,1.4-0.5,2.1c-0.4,0.6-0.9,1.1-1.5,1.4l-47.6,27.4
			c-2.5,1.4-5.5,1.4-7.9,0l-81.6-46.1c-1.4-0.8-2.1-2.2-2-3.7l0,0v-14l16.8,2.3l34.4-19.7C-548.8,255.8-545.7,255.8-543.2,257.3z"/>
		<path class="st2" d="M-600.4,271.5l49.1-28.2c2.5-1.4,5.6-1.4,8,0l80.1,46.9c1.9,1.1,2.5,3.6,1.4,5.5c-0.4,0.6-0.9,1.1-1.5,1.4
			l-47.6,27.4c-2.5,1.4-5.5,1.4-7.9,0l-81.6-46.1c-1.9-1.1-2.6-3.5-1.5-5.5C-601.5,272.3-601,271.8-600.4,271.5z"/>
		<path class="st11" d="M-584.4,277.5c2.8,0,5-1.5,5-3.3c0-1.8-2.2-3.3-5-3.3c-2.8,0-5,1.5-5,3.3
			C-589.4,276-587.1,277.5-584.4,277.5z"/>
		<path class="st11" d="M-547.4,255.5c2.8,0,5-1.5,5-3.3c0-1.8-2.2-3.3-5-3.3c-2.8,0-5,1.5-5,3.3
			C-552.4,254-550.1,255.5-547.4,255.5z"/>
		<path class="st11" d="M-479.4,296.5c2.8,0,5-1.5,5-3.3c0-1.8-2.2-3.3-5-3.3c-2.8,0-5,1.5-5,3.3
			C-484.4,295-482.1,296.5-479.4,296.5z"/>
		<path class="st11" d="M-514.4,316.5c2.8,0,5-1.5,5-3.3c0-1.8-2.2-3.3-5-3.3c-2.8,0-5,1.5-5,3.3
			C-519.4,315-517.1,316.5-514.4,316.5z"/>
		<path class="st23" d="M-556.8,283.9l31.4,17.8l-4.9,2.6l-31-17.6L-556.8,283.9z"/>
		<path class="st17" d="M-544,270c5.4-2.8,11.8-2.6,17.1,0.4l15.8,9.1l8.7,2.5l0,5.3c0.2,2.2-0.9,4.4-3,5.5
			c-5.6,2.9-12.3,2.8-17.8-0.4l-21.3-12.4c-0.9-0.5-1.6-1.3-2.1-2.2c-0.6-1-0.8-2.2-0.6-3.3l0-5.4L-544,270z"/>
		<path class="st6" d="M-544.5,272.9l21.3,12.4c5.5,3.2,12.2,3.3,17.8,0.4c2.7-1.4,3.8-4.8,2.4-7.6c-0.5-0.9-1.2-1.7-2.2-2.2
			l-21.7-12.5c-5.4-3.1-11.9-3.2-17.4-0.2c-2.7,1.5-3.7,4.9-2.3,7.6C-546.1,271.6-545.4,272.4-544.5,272.9z"/>
		<path class="st7" d="M-461.2,302.4l-49.7,29c-2.5,1.4-5.5,1.5-8,0l-83.5-47.6"/>
		<path class="st19" d="M-583.4,293.1v3.4l43.8,25.4v-3.6L-583.4,293.1z"/>
		<path class="st19" d="M-477.1,310v3.4l-20.3,12.3V322L-477.1,310z"/>
		<path class="st7" d="M-315.6,442.7l27.8,16.4c3,1.8,6.8,1.8,9.9,0.2l96.9-53.1"/>
		<path class="st24" d="M-249.4,448.4c2.8,0,5-2.2,5-5c0-2.8-2.2-5-5-5c-2.8,0-5,2.2-5,5C-254.4,446.1-252.2,448.4-249.4,448.4z"/>
		<path class="st7" d="M-376.8,380.1l-30.8-18.2c-3.1-1.8-7-1.9-10.1,0l-29,16.9c-3.2,1.9-7.3,1.8-10.4-0.2l-24.2-15.5"/>
		<path class="st24" d="M-430,373.8c2.8,0,5-2.2,5-5c0-2.8-2.2-5-5-5c-2.8,0-5,2.2-5,5C-435,371.6-432.8,373.8-430,373.8z"/>
		<path class="st1" d="M-479.3,112.2c3.1-1.8,6.9-1.8,10,0l61.8,35.3l8-0.8v8.1c0,1.8-0.9,3.5-2.5,4.5l-95.4,55.3
			c-3.1,1.8-6.9,1.8-10,0l-66.8-38.2c-0.8-0.4-1.4-1.1-1.8-1.8c-0.5-0.8-0.7-1.7-0.7-2.5l0-0.1v-8l10.7-1L-479.3,112.2z"/>
		<path class="st2" d="M-497.4,206.5l95.4-55.3c2.4-1.4,3.2-4.4,1.8-6.8c-0.4-0.8-1.1-1.4-1.8-1.8l-67.2-38.4c-3.1-1.8-6.9-1.8-10,0
			l-94.9,55.4c-2.4,1.4-3.2,4.5-1.8,6.8c0.4,0.8,1.1,1.4,1.8,1.8l66.8,38.2C-504.3,208.3-500.5,208.3-497.4,206.5z"/>
		<path class="st11" d="M-534.4,184.5c2.8,0,5-1.5,5-3.3c0-1.8-2.2-3.3-5-3.3c-2.8,0-5,1.5-5,3.3
			C-539.4,183-537.1,184.5-534.4,184.5z"/>
		<path class="st3" d="M-554,161.1l55.8,32c1.9,1.1,4.1,1.1,6,0l70-40.5c1.4-0.8,1.9-2.7,1.1-4.1c-0.3-0.5-0.6-0.8-1.1-1.1
			l-56.1-32.2c-1.9-1.1-4.2-1.1-6,0l-69.7,40.6c-1.4,0.8-1.9,2.7-1.1,4.1C-554.8,160.4-554.4,160.8-554,161.1z"/>
		<path class="st1" d="M-454.8,120.7c1.4-0.7,3.1-0.7,4.5,0.1l17.9,10.4c0.7,0.4,0.9,1.3,0.5,2c-0.1,0.2-0.3,0.4-0.5,0.5
			c-1.4,0.8-3,0.8-4.4,0l-18-10.5c-0.7-0.4-0.9-1.3-0.5-2C-455.3,121-455.1,120.8-454.8,120.7z"/>
		<path class="st25" d="M-498,161.9l-6.9-14.7v-6.7l49.6,7.2v7l-17.1,10.3L-498,161.9z"/>
		<path class="st26" d="M-498,154.9l-6.9-14.7l18.5-11.2l25,4l6.1,14.6l-17.1,10.3L-498,154.9z"/>
		<path class="st27" d="M-472.5,145.7l-18.6,3.4l7.5-4.4l-6.9-4l19.4-3.3l-7.8,4.5L-472.5,145.7z"/>
		<path class="st18" d="M-525.8,156.9l31.4,17.8l-4.9,2.6l-31-17.6L-525.8,156.9z"/>
		<path class="st1" d="M-123.2,339.5c2.6-1.5,5.7-1.4,8.2,0.1l32.9,20.3l8-1.4l0,8.2c0.2,1.5-0.6,3-2,3.9l-78.8,46.2
			c-2.5,1.5-5.6,1.5-8.1,0l-40.3-23.7c-0.6-0.3-1.1-0.8-1.4-1.4c-0.5-0.8-0.6-1.7-0.5-2.5l0,0v-8.3l15.7-2.7L-123.2,339.5z"/>
		<path class="st2" d="M-203.2,384.1l40.3,23.7c2.5,1.5,5.6,1.5,8.1,0l78.8-46.2c1.9-1.1,2.5-3.6,1.4-5.5c-0.3-0.6-0.8-1-1.4-1.4
			l-39-24.1c-2.5-1.5-5.7-1.6-8.2-0.1l-80,46.6c-1.9,1.1-2.6,3.6-1.4,5.5C-204.3,383.2-203.8,383.7-203.2,384.1z"/>
		<path class="st3" d="M-191.4,381.6l31.9,18.5c1.9,1.1,4.2,1.1,6.1,0l66.2-38.8c1.4-0.8,1.9-2.7,1.1-4.1c-0.3-0.4-0.6-0.8-1.1-1.1
			l-31.8-18.5c-1.9-1.1-4.2-1.1-6,0l-66.3,38.7c-1.4,0.8-1.9,2.7-1.1,4.1C-192.3,380.9-191.9,381.3-191.4,381.6z"/>
		<path class="st2" d="M-180.7,357.7l30.9-18.9l41,24.6l-32,18.5L-180.7,357.7z"/>
		<path class="st18" d="M-171.3,374.9l20.8,11.9l-3.1,1.6l-20.7-11.9L-171.3,374.9z"/>
		<path class="st26" d="M-180.7,347.7l30.9-18.9l41,24.6l-32,18.5L-180.7,347.7z"/>
		<path class="st18" d="M-151.1,339.8l23.2,13.5l-3.1,1.6l-23.1-13.4L-151.1,339.8z"/>
		<path class="st28" d="M-160.1,344.8l23.2,13.5l-3.1,1.6l-23.1-13.4L-160.1,344.8z"/>
		<path class="st7" d="M-209.1,340.1l33.8,21"/>
		<path class="st7" d="M-587.5,263.5l-30.8-18.5c-2.8-1.7-3.8-5.4-2.1-8.2c0.5-0.8,1.2-1.6,2.1-2.1l71.2-42.8"/>
		<path class="st8" d="M-603.5,230.4c2.8,0,5-2.2,5-5c0-2.8-2.2-5-5-5c-2.8,0-5,2.2-5,5C-608.5,228.1-606.2,230.4-603.5,230.4z"/>
		<path class="st8" d="M-384.7,140c2.8,0,5-2.2,5-5c0-2.8-2.2-5-5-5c-2.8,0-5,2.2-5,5C-389.7,137.7-387.5,140-384.7,140z"/>
		<path d="M-255.7,117.5c0.5,0.5,0.8,1,1.1,1.7c0.3,0.6,0.4,1.3,0.3,1.9c0,0.7-0.2,1.3-0.5,1.9c-0.5,1-1.3,1.8-2.3,2.3
			c-1,0.5-2.1,0.8-3.3,0.8c-1.2,0-2.4-0.4-3.6-1l-7.3-3.8c-0.1-0.1-0.2-0.2-0.3-0.3c0-0.1,0-0.3,0.1-0.4l8.3-16.1
			c0.1-0.2,0.2-0.2,0.3-0.3c0.1,0,0.3,0,0.4,0.1l6.8,3.5c1.1,0.6,2,1.3,2.6,2.2c0.7,0.9,1.1,1.8,1.2,2.8c0.2,1,0,1.9-0.4,2.7
			c-0.3,0.7-0.8,1.2-1.5,1.5C-254.3,117.3-255,117.5-255.7,117.5z M-256.9,113.8c0.2-0.4,0.2-0.7,0-1.1c-0.2-0.4-0.5-0.7-0.9-0.9
			l-2.7-1.4l-1.3,2.5l2.7,1.4c0.4,0.2,0.9,0.3,1.3,0.2C-257.4,114.4-257.1,114.2-256.9,113.8z M-262,121c0.4,0.2,0.7,0.3,1.1,0.3
			c0.4,0,0.7-0.1,1-0.3c0.3-0.2,0.5-0.4,0.7-0.7c0.3-0.5,0.3-1,0.1-1.5c-0.2-0.5-0.6-0.9-1.2-1.2l-3.1-1.6l-1.8,3.4L-262,121z"/>
		<path d="M-240.8,129.4c-0.2,0.3-0.4,0.5-0.6,0.7c-0.3,0.2-0.6,0.3-0.9,0.3c-0.3,0-0.6-0.1-0.9-0.2l-6.4-3.3c-0.1,0.5,0,1,0.3,1.4
			c0.3,0.5,0.7,0.8,1.2,1.1c0.4,0.2,0.7,0.3,1.1,0.4c0.4,0.1,0.8,0.1,1.1,0c0.1,0,0.3,0,0.4,0.1c0.2,0.1,0.3,0.2,0.3,0.5l0.4,2.6
			c0,0.1,0,0.3-0.1,0.4c-0.1,0.1-0.2,0.2-0.4,0.3c-0.7,0.1-1.6,0.1-2.4,0c-0.9-0.1-1.6-0.4-2.4-0.8c-1.2-0.6-2.1-1.4-2.8-2.4
			c-0.7-1-1.1-2.2-1.2-3.4c-0.1-1.2,0.2-2.4,0.7-3.5c0.6-1.1,1.4-2,2.4-2.6c1-0.6,2.2-1,3.4-1c1.2,0,2.4,0.2,3.6,0.8
			c1.1,0.6,2,1.4,2.7,2.3c0.6,1,1,2,1.1,3.1C-240,127.2-240.2,128.3-240.8,129.4z M-245.7,124.1c-0.5-0.2-0.9-0.3-1.4-0.2
			c-0.5,0.1-0.9,0.3-1.3,0.6l4,2.1c0.1-0.5,0-1-0.2-1.4C-244.8,124.7-245.2,124.4-245.7,124.1z"/>
		<path d="M-233.4,130.5c-0.2-0.1-0.4-0.2-0.6-0.1c-0.2,0-0.3,0.1-0.4,0.3c-0.1,0.1-0.1,0.3,0.1,0.5c0.1,0.2,0.4,0.5,0.8,0.9
			c0.9,0.8,1.5,1.5,2,2.1c0.5,0.6,0.7,1.2,0.8,1.9c0.1,0.6,0,1.3-0.4,2c-0.4,0.7-0.9,1.3-1.6,1.6c-0.7,0.3-1.5,0.4-2.4,0.3
			c-0.9-0.1-1.8-0.4-2.9-1c-1-0.5-1.8-1.1-2.5-1.9c-0.7-0.8-1.2-1.6-1.4-2.4c-0.1-0.2-0.1-0.4,0-0.5c0.1-0.1,0.2-0.3,0.5-0.3
			l2.5-0.8c0.2,0,0.3,0,0.4,0c0.2,0.1,0.3,0.3,0.5,0.5c0.2,0.4,0.5,0.8,0.8,1.2c0.3,0.3,0.7,0.6,1,0.8c0.3,0.2,0.5,0.2,0.7,0.3
			c0.2,0,0.3-0.1,0.4-0.2c0.1-0.2,0.1-0.4-0.1-0.6c-0.1-0.2-0.4-0.6-0.9-1c-0.8-0.7-1.4-1.4-1.8-1.9c-0.4-0.6-0.7-1.2-0.7-1.8
			c-0.1-0.6,0.1-1.3,0.5-2.1c0.3-0.6,0.8-1.1,1.4-1.5c0.6-0.4,1.4-0.5,2.2-0.5c0.9,0,1.8,0.3,2.7,0.8c0.8,0.4,1.6,1,2.2,1.7
			c0.6,0.7,1.1,1.5,1.3,2.2c0.1,0.3,0.1,0.6,0,0.7c-0.1,0.1-0.2,0.2-0.5,0.3l-2.1,0.7c-0.2,0.1-0.4,0-0.5-0.1
			c-0.2-0.1-0.3-0.2-0.5-0.4C-232.1,131.4-232.6,130.8-233.4,130.5z"/>
		<path d="M-223.6,139.9c-0.3,0.5-0.4,1-0.2,1.3c0.1,0.3,0.5,0.6,1,0.9c0.2,0.1,0.3,0.2,0.4,0.4c0.1,0.2,0.1,0.3,0,0.5l-1.4,2.6
			c-0.1,0.2-0.2,0.3-0.4,0.3c-0.2,0-0.4,0-0.6-0.1c-1.8-0.9-3-2.1-3.5-3.4c-0.5-1.4-0.3-2.9,0.6-4.7l1.7-3.2l-1.1-0.6
			c-0.1-0.1-0.2-0.2-0.3-0.3c0-0.1,0-0.2,0.1-0.4l1.3-2.5c0.1-0.1,0.2-0.2,0.3-0.2c0.1,0,0.2,0,0.4,0l1.1,0.6l1.5-2.8
			c0.1-0.3,0.4-0.4,0.6-0.3l3.6,1c0.1,0,0.1,0,0.2,0.1c0.2,0.1,0.3,0.3,0.1,0.6l-1.9,3.7l1.8,1c0.1,0.1,0.2,0.2,0.2,0.3
			c0,0.1,0,0.2,0,0.4l-1.3,2.5c-0.1,0.1-0.2,0.2-0.3,0.2c-0.1,0-0.2,0-0.4,0l-1.8-1L-223.6,139.9z"/>
		<path d="M-205.1,143.7c0.5,0.5,0.8,1,1.1,1.7c0.3,0.6,0.4,1.3,0.3,1.9c0,0.7-0.2,1.3-0.5,1.9c-0.5,1-1.3,1.8-2.3,2.3
			c-1,0.5-2.1,0.8-3.3,0.8c-1.2,0-2.4-0.4-3.6-1l-7.3-3.8c-0.1-0.1-0.2-0.2-0.3-0.3c0-0.1,0-0.3,0.1-0.4l8.3-16.1
			c0.1-0.1,0.2-0.2,0.3-0.3c0.1,0,0.3,0,0.4,0.1l6.8,3.5c1.1,0.6,2,1.3,2.6,2.2c0.7,0.9,1.1,1.8,1.2,2.8c0.2,1,0,1.9-0.4,2.7
			c-0.3,0.7-0.8,1.2-1.5,1.5C-203.7,143.6-204.4,143.7-205.1,143.7z M-206.3,140.1c0.2-0.4,0.2-0.7,0-1.1c-0.2-0.4-0.5-0.7-0.9-0.9
			l-2.7-1.4l-1.3,2.5l2.7,1.4c0.4,0.2,0.9,0.3,1.3,0.2C-206.8,140.7-206.5,140.4-206.3,140.1z M-211.4,147.2
			c0.4,0.2,0.7,0.3,1.1,0.3c0.4,0,0.7-0.1,1-0.3c0.3-0.2,0.5-0.4,0.7-0.7c0.3-0.5,0.3-1,0.1-1.5c-0.2-0.5-0.6-0.9-1.2-1.2l-3.1-1.6
			l-1.8,3.4L-211.4,147.2z"/>
		<path d="M-187.3,150.3c0.3,0.2,0.4,0.4,0.2,0.7l-5.5,10.6c-0.1,0.1-0.2,0.2-0.3,0.3c-0.1,0-0.2,0-0.4,0l-1.9-1
			c-0.1,0-0.2-0.1-0.2-0.2c-0.1-0.1-0.1-0.2-0.1-0.3l0-1.9c-0.7,0.4-1.5,0.6-2.4,0.7c-0.9,0-1.8-0.2-2.5-0.5
			c-0.9-0.5-1.6-1.1-2.1-1.9c-0.5-0.8-0.7-1.7-0.7-2.6c0-1,0.3-2,0.8-3.1l3.2-6.2c0.1-0.1,0.2-0.2,0.3-0.3c0.1,0,0.2,0,0.4,0.1
			l3.2,1.7c0.1,0.1,0.2,0.2,0.3,0.3c0,0.1,0,0.2-0.1,0.4l-3.1,5.9c-0.3,0.5-0.3,1-0.2,1.6c0.2,0.5,0.5,0.9,1.1,1.2
			c0.4,0.2,0.7,0.3,1.1,0.3c0.4,0,0.7-0.1,1.1-0.3c0.3-0.2,0.6-0.4,0.7-0.7l3.1-5.9c0.2-0.3,0.4-0.4,0.7-0.2L-187.3,150.3z"/>
		<path d="M-172.9,157.8c0.1,0.1,0.2,0.1,0.2,0.2c0,0.1,0,0.2,0,0.3c0,0.1-0.1,0.1-0.2,0.2l-10,8.1l0,0l-4.2,3.5
			c-0.2,0.2-0.5,0.2-0.7,0.1l-2.7-1.4c-0.4-0.2-0.5-0.5-0.4-0.7c0-0.1,0.1-0.2,0.3-0.3l3.9-3.3l0.8-12.7c0-0.1,0-0.2,0.1-0.3
			c0.1-0.1,0.1-0.2,0.2-0.2c0.1,0,0.2,0,0.3,0l3.4,1.8c0.1,0.1,0.2,0.2,0.3,0.3c0.1,0.1,0.1,0.3,0.1,0.4l-0.8,7l5.2-4.7
			c0.1-0.1,0.2-0.2,0.4-0.2c0.2,0,0.3,0,0.4,0.1L-172.9,157.8z"/>
		<path d="M-203.6,163.8C-203.6,163.9-203.6,163.9-203.6,163.8c0,0.1-0.1,0.1-0.1,0.2c0,0-0.1,0-0.1,0l-0.9-0.5c0,0-0.1,0-0.1-0.1
			c0,0,0-0.1,0-0.1l0-0.9c0,0-0.1,0-0.1-0.1l-0.7-0.4l-0.4,0.7c0,0-0.1,0.1-0.1,0.1c0,0-0.1,0-0.1,0l-0.8-0.4c0,0-0.1-0.1-0.1-0.1
			c0,0,0-0.1,0-0.1l2-3.9c0,0,0.1-0.1,0.1-0.1c0,0,0.1,0,0.1,0l1.7,0.9c0.3,0.2,0.6,0.4,0.8,0.7c0.2,0.3,0.3,0.6,0.3,0.9
			c0,0.3,0,0.7-0.2,1c-0.1,0.3-0.3,0.5-0.6,0.7c-0.2,0.2-0.5,0.3-0.8,0.3L-203.6,163.8z M-205.1,161l0.6,0.3
			c0.1,0.1,0.3,0.1,0.4,0.1c0.1,0,0.3,0,0.4-0.1c0.1-0.1,0.2-0.2,0.3-0.3c0.1-0.1,0.1-0.3,0.1-0.4c0-0.1-0.1-0.3-0.1-0.4
			c-0.1-0.1-0.2-0.2-0.3-0.3l-0.6-0.3L-205.1,161z"/>
		<path d="M-200.7,160.4c0,0,0.1-0.1,0.1-0.1c0,0,0.1,0,0.1,0l1.7,0.9c0.4,0.2,0.8,0.5,1,0.9c0.2,0.4,0.4,0.7,0.4,1.2
			c0,0.4-0.1,0.8-0.3,1.2c-0.2,0.4-0.5,0.7-0.9,1c-0.4,0.2-0.7,0.3-1.2,0.4c-0.4,0-0.9-0.1-1.3-0.3l-1.7-0.9c0,0-0.1-0.1-0.1-0.1
			c0,0,0-0.1,0-0.1L-200.7,160.4z M-200.4,164.4c0.2,0.1,0.4,0.1,0.6,0.1c0.2,0,0.4-0.1,0.6-0.2c0.2-0.1,0.3-0.3,0.4-0.5
			c0.1-0.2,0.2-0.4,0.2-0.6c0-0.2-0.1-0.4-0.2-0.6c-0.1-0.2-0.3-0.3-0.5-0.4l-0.8-0.4l-1.1,2.2L-200.4,164.4z"/>
		<path d="M-194.3,163.5c0.4,0.2,0.7,0.4,0.9,0.7c0.2,0.3,0.4,0.6,0.4,1c0,0.3,0,0.7-0.2,1c-0.2,0.3-0.4,0.6-0.7,0.7
			c-0.3,0.2-0.6,0.3-1,0.2c-0.4,0-0.7-0.1-1.1-0.3l-0.5-0.2l-0.4,0.7c0,0-0.1,0.1-0.1,0.1c0,0-0.1,0-0.1,0l-0.8-0.4
			c-0.1,0-0.1-0.1-0.1-0.1s0-0.1,0-0.1l2-3.9c0,0,0.1-0.1,0.1-0.1c0,0,0.1,0,0.1,0L-194.3,163.5z M-195.6,165.9
			c0.2,0.1,0.3,0.1,0.5,0.1c0.2,0,0.3,0,0.5-0.1c0.1-0.1,0.2-0.2,0.3-0.3c0.1-0.1,0.1-0.3,0.1-0.4c0-0.2-0.1-0.3-0.2-0.4
			c-0.1-0.1-0.2-0.2-0.4-0.3l-0.4-0.2l-0.8,1.5L-195.6,165.9z"/>
		<path class="st29" d="M-391.8,49l-1.9-0.5c-0.6-0.2-1.1-0.4-1.6-0.8c-2.1-1.5-2.6-4.3-1-6.5l7.3-10.3c1.5-2.2,4.7-3.2,7.3-2.5
			l12.7,3.7c0.6,0.2,1.1,0.4,1.6,0.8c2.1,1.5,2.6,4.3,1,6.5l-0.7,0.9l0,0l-7.5,10.5c-1,1.5-3.4,2.2-5.2,1.7L-391.8,49L-391.8,49
			L-391.8,49z M-390,46.5l5-7.1c0.7-1,1.8-1.7,3-2.2c1.2-0.4,2.5-0.5,3.7-0.1l8.3,2.4l1.2-1.8c0.7-0.9,0.5-1.9-0.4-2.5
			c-0.2-0.2-0.5-0.3-0.8-0.4l-12.7-3.7c-1.4-0.4-3.3,0.2-4.1,1.4l-7.3,10.3c-0.7,0.9-0.5,1.9,0.4,2.5c0.2,0.2,0.5,0.3,0.8,0.4
			L-390,46.5L-390,46.5z M-393.5,52.2l12.8,3.8c3.3,1,7.2-0.4,9.1-3.1l8-11.4l0,0c0.9,0.6,1.5,1.6,1.6,2.6c0.2,1-0.1,2.1-0.8,3
			l-7.7,10.9c-0.7,1-1.8,1.7-3,2.2c-1.2,0.4-2.5,0.5-3.7,0.1l-13.4-3.8c-0.5-0.1-1-0.4-1.4-0.7c-0.9-0.6-1.5-1.6-1.6-2.6
			C-393.6,53-393.6,52.6-393.5,52.2z"/>
		<path class="st7" d="M-426.9,173.5l21.7,13.7"/>
		<path class="st5" d="M-370.8,190.1l185.3,106.1"/>
		<path class="st5" d="M-381.2,196l185.5,106.1"/>
		<path class="st5" d="M-392.3,202.4l185.8,106.2"/>
		<path class="st5" d="M-403.9,209.1l185.8,106.2"/>
		<path class="st5" d="M-404.2,222.2l55.7-32.7"/>
		<path class="st5" d="M-392.9,228.7l55.7-32.7"/>
		<path class="st5" d="M-381.2,235.6l55.7-32.7"/>
		<path class="st5" d="M-368.3,243.1l55.7-32.7"/>
		<path class="st5" d="M-355.2,250.7l55.7-32.7"/>
		<path class="st5" d="M-342.3,258.2l55.7-32.7"/>
		<path class="st5" d="M-329.4,265.4l55.7-32.7"/>
		<path class="st5" d="M-316.3,273.1l55.7-32.7"/>
		<path class="st5" d="M-302.2,281.1l55.7-32.7"/>
		<path class="st5" d="M-288.4,289.5l55.7-32.7"/>
		<path class="st5" d="M-273.1,298.1l55.7-32.7"/>
		<path class="st5" d="M-258.7,305.9l55.7-32.7"/>
		<path class="st5" d="M-244.4,314.4l55.7-32.7"/>
	</g>
</g>
<g>
	<g>
		<defs>
			<rect id="SVGID_3_" x="1" width="589" height="461"/>
		</defs>
		<clipPath id="SVGID_4_">
			<use xlink:href="#SVGID_3_"  style="overflow:visible;"/>
		</clipPath>
		<path class="st30" d="M254.9,174.5c3.1-1.8,6.9-1.8,10,0l199.5,113.9l14.6,2.4v8.6c0.1,1.8-0.8,3.6-2.5,4.5l-114.3,66.7
			c-3.1,1.8-6.9,1.8-10.1,0L142.1,248.9c-0.8-0.4-1.4-1.1-1.8-1.8c-0.4-0.7-0.7-1.6-0.7-2.4l0,0v-9.6l8.8,1.4L254.9,174.5z"/>
		<path class="st31" d="M362.2,361.6l114.3-66.7c2.4-1.4,3.2-4.5,1.8-6.8c-0.4-0.8-1.1-1.4-1.8-1.8L264.9,165.4
			c-3.1-1.8-6.9-1.8-10,0l-112.8,65.8c-2.4,1.4-3.2,4.5-1.8,6.8c0.4,0.8,1.1,1.4,1.8,1.8l210.1,121.7
			C355.2,363.4,359.1,363.4,362.2,361.6z"/>
		<path class="st30" d="M231.5,273.4l24.1-13.5c1.8-1,4.1-1,5.9,0l55.3,31.4c1.4,0.8,1.9,2.6,1.1,4.1c-0.3,0.5-0.6,0.8-1.1,1.1
			l-24.5,14.3c-1.9,1.1-4.2,1.1-6.1,0l-55-32.1c-1.4-0.8-1.9-2.7-1.1-4.1C230.6,274.1,231,273.7,231.5,273.4z"/>
		<path class="st30" d="M213.4,219.3L388.9,321c1.9,1.1,4.2,1.1,6,0l49.5-28.7c1.4-0.8,1.9-2.7,1.1-4.1c-0.3-0.5-0.6-0.8-1.1-1.1
			L266.5,184.9c-1.9-1.1-4.2-1.1-6,0l-47.2,27.5c-1.9,1.1-2.6,3.6-1.4,5.5C212.3,218.5,212.8,219,213.4,219.3z"/>
		<path class="st31" d="M486.1,285.3l61.7-149.7c1.9-4.7,0.1-10-4.3-12.5L333.7,4.3c-2.4-1.4-5.5-0.5-6.8,1.9
			c-0.1,0.2-0.2,0.3-0.2,0.5l-63.3,147.7c-2,4.7-0.2,10.1,4.2,12.6L479,287.7c2.4,1.4,5.5,0.5,6.8-1.9
			C486,285.7,486,285.5,486.1,285.3z"/>
		<path class="st32" d="M278.7,151.9l54.1-128.4c0.9-2,3.2-3,5.2-2.1c0.2,0.1,0.3,0.1,0.5,0.2l188.9,109.8c3.5,2,4.9,6.3,3.4,10
			L477.4,269c-0.9,2-3.2,3-5.2,2.1c-0.2-0.1-0.3-0.1-0.4-0.2L282.1,162C278.6,160,277.1,155.7,278.7,151.9z"/>
		<path class="st30" d="M451.6,228.3l40.1-94.2L361.7,58.4l-40,94.7L451.6,228.3z"/>
		<path class="st31" d="M438.6,232.3l40.1-94.2L348.7,62.4l-40,94.7L438.6,232.3z"/>
		<path class="st33" d="M352.9,139.9l-2.4,4.7l62.9,36.7l2.3-4.5L352.9,139.9z"/>
		<path class="st33" d="M354.9,157.9l-2.4,4.7l45.8,26.2l2.3-4.5L354.9,157.9z"/>
		<path class="st30" d="M259.8,105.3l32.9-77L245.5,2l-32.2,76.2L259.8,105.3z"/>
		<path class="st31" d="M246.2,110.1l32.9-77L232,6.8L199.8,83L246.2,110.1z"/>
		<path class="st33" d="M214.3,70.5l-1.8,4.6l26.7,15l1.7-4.2L214.3,70.5z"/>
		<path class="st33" d="M219.3,58.9l-1.9,4.6l26.8,15.2l2-4.4L219.3,58.9z"/>
		<path class="st34" d="M50.5,94.6l18.6-10.8c1.3-0.7,2.8-0.7,4.1,0l18.6,10.8c1,0.6,1.3,1.8,0.7,2.8c-0.2,0.3-0.4,0.6-0.7,0.7
			l-18.6,10.7c-1.3,0.7-2.8,0.7-4.1,0L50.5,98.1c-1-0.6-1.3-1.8-0.8-2.8C49.9,95,50.2,94.7,50.5,94.6z"/>
		<path class="st34" d="M115.5,431.4l27.1-15.7c1.3-0.7,2.8-0.7,4.1,0l27,15.7c1,0.6,1.3,1.8,0.7,2.8c-0.2,0.3-0.4,0.6-0.7,0.7
			l-27,15.6c-1.3,0.7-2.8,0.7-4.1,0l-27.1-15.6c-1-0.6-1.3-1.8-0.8-2.8C115,431.8,115.2,431.5,115.5,431.4z"/>
		<path class="st34" d="M471.4,51.6L490,40.8c1.3-0.7,2.8-0.7,4.1,0l18.6,10.8c1,0.6,1.3,1.8,0.7,2.8c-0.2,0.3-0.4,0.6-0.7,0.7
			l-18.6,10.7c-1.3,0.7-2.8,0.7-4.1,0l-18.6-10.7c-1-0.6-1.3-1.8-0.8-2.8C470.9,52,471.1,51.7,471.4,51.6z"/>
		<path class="st30" d="M493.7,229.7l22.1-52.5l73.3,41.4l-22.8,53.6L493.7,229.7z"/>
		<path class="st31" d="M480,234.8l22.8-52.6l73.3,41.4l-22.8,53.6L480,234.8z"/>
		<path class="st33" d="M498.8,225.8l-1.8,4.6l47.4,26.5l1.7-4.2L498.8,225.8z"/>
		<path class="st33" d="M503.8,214.2l-1.9,4.6l47.4,26.7l2-4.4L503.8,214.2z"/>
		<path class="st35" d="M508.9,202.2l-1.9,4.7l23.1,13.2l2.2-4.3L508.9,202.2z"/>
		<path class="st36" d="M221.6,95.1l-9.9,19.2c-1.5,2.9-0.4,6.4,2.4,8l51.1,28.2"/>
		<path class="st36" d="M489.1,278l17.3,10.1c2.9,1.7,6.5,0.7,8.2-2.2c0.1-0.2,0.3-0.5,0.4-0.7l9.9-24.1"/>
		<path class="st37" d="M511.5,291.9c2.8,0,5-2.2,5-5c0-2.8-2.2-5-5-5c-2.8,0-5,2.2-5,5C506.5,289.6,508.7,291.9,511.5,291.9z"/>
		<defs>
			<filter id="Adobe_OpacityMaskFilter_2_" filterUnits="userSpaceOnUse" x="224.2" y="389.7" width="104.3" height="70.3">
				<feColorMatrix  type="matrix" values="1 0 0 0 0  0 1 0 0 0  0 0 1 0 0  0 0 0 1 0"/>
			</filter>
		</defs>
		<mask maskUnits="userSpaceOnUse" x="224.2" y="389.7" width="104.3" height="70.3" id="mask0_1_">
			<path class="st38" d="M280.7,405.1l20.8,12.2l20.6,0l0,14.2c0.1,0.8-0.1,1.6-0.6,2.3c-0.4,0.6-0.9,1.1-1.5,1.5l-39.7,23
				c-2.5,1.5-5.7,1.5-8.2,0l-39.6-22.9c-1.5-0.9-2.3-2.6-2-4.2l0-13.8l20.8,0l21.1-12.2C275,403.6,278.1,403.6,280.7,405.1z"/>
		</mask>
		<g class="st39">
			<path class="st11" d="M280.7,405.1l20.8,12.2l20.6,0l0,14.2c0.1,0.8-0.1,1.6-0.6,2.3c-0.4,0.6-0.9,1.1-1.5,1.5l-39.7,23
				c-2.5,1.5-5.7,1.5-8.2,0l-39.6-22.9c-1.5-0.9-2.3-2.6-2-4.2l0-13.8l20.8,0l21.1-12.2C275,403.6,278.1,403.6,280.7,405.1z"/>
			<path class="st7" d="M226.8,417.9l45.6-26.5c2.6-1.5,5.7-1.5,8.3,0l45.1,26.5c1.9,1.1,2.6,3.7,1.5,5.6c-0.4,0.6-0.9,1.1-1.5,1.5
				l-45.4,26.3c-2.5,1.5-5.7,1.5-8.2,0L226.9,425c-2-1.1-2.6-3.6-1.5-5.6C225.7,418.8,226.2,418.3,226.8,417.9z"/>
			<path class="st12" d="M287,446.3v2.2c0,0.5,0.4,0.8,0.8,0.8c0.1,0,0.3,0,0.4-0.1l9.2-5.1c0.5-0.3,0.9-0.9,0.9-1.5v-2.2
				c0-0.5-0.4-0.8-0.8-0.8c-0.1,0-0.3,0-0.4,0.1l-9.2,5.2C287.4,445.1,287,445.7,287,446.3z"/>
			<path class="st12" d="M303,437.1v2.2c0,0.5,0.4,0.8,0.8,0.8c0.1,0,0.3,0,0.4-0.1l9.2-5.1c0.5-0.3,0.9-0.9,0.9-1.5v-2.2
				c0-0.5-0.4-0.8-0.8-0.8c-0.1,0-0.3,0-0.4,0.1l-9.2,5.2C303.3,435.9,303,436.5,303,437.1z"/>
			<path class="st13" d="M239.6,429.5c1.4,0.8,2.6,2.8,2.6,4.5c0,1.7-1.2,2.3-2.6,1.5c-1.4-0.8-2.6-2.8-2.6-4.5
				C237,429.3,238.2,428.6,239.6,429.5z"/>
			<path class="st13" d="M248.3,434.6c1.4,0.8,2.6,2.8,2.6,4.5c0,1.7-1.2,2.3-2.6,1.5c-1.4-0.8-2.6-2.8-2.6-4.5
				C245.7,434.4,246.8,433.7,248.3,434.6z"/>
		</g>
		<path class="st31" d="M232.6,413.9l39.8-23.2c2.6-1.5,5.7-1.5,8.3,0l39.4,23.1c2,1.1,2.6,3.7,1.5,5.6c-0.4,0.6-0.9,1.1-1.5,1.5
			l-39.7,23c-2.5,1.5-5.7,1.5-8.2,0L232.6,421c-2-1.1-2.6-3.6-1.5-5.6C231.5,414.8,232,414.3,232.6,413.9z"/>
		<defs>
			<filter id="Adobe_OpacityMaskFilter_3_" filterUnits="userSpaceOnUse" x="224.2" y="363.3" width="104.3" height="70.8">
				<feColorMatrix  type="matrix" values="1 0 0 0 0  0 1 0 0 0  0 0 1 0 0  0 0 0 1 0"/>
			</filter>
		</defs>
		<mask maskUnits="userSpaceOnUse" x="224.2" y="363.3" width="104.3" height="70.8" id="mask1_1_">
			<path class="st40" d="M280.7,379.2l20.8,12.2l20.6,0l0,14.2c0.1,0.8-0.1,1.6-0.6,2.3c-0.4,0.6-0.9,1.1-1.5,1.5l-39.7,23
				c-2.5,1.5-5.7,1.5-8.2,0l-39.6-22.9c-1.5-0.9-2.3-2.6-2-4.2l0-13.8l20.8,0l21.1-12.2C275,377.7,278.1,377.7,280.7,379.2z"/>
		</mask>
		<g class="st41">
			<path class="st11" d="M280.7,379.2l20.8,12.2l20.6,0l0,14.2c0.1,0.8-0.1,1.6-0.6,2.3c-0.4,0.6-0.9,1.1-1.5,1.5l-39.7,23
				c-2.5,1.5-5.7,1.5-8.2,0l-39.6-22.9c-1.5-0.9-2.3-2.6-2-4.2l0-13.8l20.8,0l21.1-12.2C275,377.7,278.1,377.7,280.7,379.2z"/>
			<path class="st7" d="M226.8,391.5l45.6-26.5c2.6-1.5,5.7-1.5,8.3,0l45.1,26.5c1.9,1.1,2.6,3.7,1.5,5.6c-0.4,0.6-0.9,1.1-1.5,1.5
				l-45.4,26.3c-2.5,1.5-5.7,1.5-8.2,0l-45.4-26.3c-2-1.1-2.6-3.6-1.5-5.6C225.7,392.4,226.2,391.9,226.8,391.5z"/>
			<path class="st12" d="M287,419.6v2.2c0,0.5,0.4,0.8,0.8,0.8c0.1,0,0.3,0,0.4-0.1l9.2-5.1c0.5-0.3,0.9-0.9,0.9-1.5v-2.2
				c0-0.5-0.4-0.8-0.8-0.8c-0.1,0-0.3,0-0.4,0.1l-9.2,5.2C287.4,418.4,287,419,287,419.6z"/>
			<path class="st12" d="M303,410.4v2.2c0,0.5,0.4,0.8,0.8,0.8c0.1,0,0.3,0,0.4-0.1l9.2-5.1c0.5-0.3,0.9-0.9,0.9-1.5v-2.2
				c0-0.5-0.4-0.8-0.8-0.8c-0.1,0-0.3,0-0.4,0.1l-9.2,5.2C303.3,409.2,303,409.8,303,410.4z"/>
			<path class="st13" d="M239.6,403.2c1.4,0.8,2.6,2.8,2.6,4.5c0,1.7-1.2,2.3-2.6,1.5c-1.4-0.8-2.6-2.8-2.6-4.5
				C237,403,238.2,402.3,239.6,403.2z"/>
			<path class="st13" d="M248.3,408.3c1.4,0.8,2.6,2.8,2.6,4.5c0,1.7-1.2,2.3-2.6,1.5c-1.4-0.8-2.6-2.8-2.6-4.5
				C245.7,408.1,246.8,407.4,248.3,408.3z"/>
		</g>
		<path class="st31" d="M232.6,388l39.8-23.2c2.6-1.5,5.7-1.5,8.3,0l39.4,23.1c2,1.1,2.6,3.7,1.5,5.6c-0.4,0.6-0.9,1.1-1.5,1.5
			l-39.7,23c-2.5,1.5-5.7,1.5-8.2,0l-39.6-22.9c-2-1.1-2.6-3.6-1.5-5.6C231.5,388.9,232,388.4,232.6,388z"/>
		<path class="st42" d="M276.3,401.9c8.7,0,15.8-3.8,15.8-8.4c0-4.6-7.1-8.4-15.8-8.4s-15.8,3.8-15.8,8.4
			C260.5,398.2,267.6,401.9,276.3,401.9z"/>
		<path class="st43" d="M278.8,394.5v-5c8.8-11.9,13.2-20.7,13.2-26.3c0-8.2-5.6-15.1-13.2-17.2v-0.6h-5.1
			c-9.6,0.3-17.3,8.1-17.3,17.8c0,6.3,5.5,16.5,16.4,30.7c0.1,0.1,0.2,0.2,0.3,0.3c0.3,0.2,0.7,0.3,1,0.3H278.8z"/>
		<path class="st44" d="M277.5,393.8c-11-14.2-16.4-24.4-16.4-30.7c0-9.8,8-17.8,17.8-17.8c9.8,0,17.8,8,17.8,17.8
			c0,6.3-5.5,16.5-16.4,30.7l0,0c-0.6,0.7-1.6,0.9-2.3,0.3C277.7,394,277.6,393.9,277.5,393.8z"/>
		<path class="st45" d="M278.8,369.4c-4.1,0-7.5-3.4-7.5-7.5c0-4.1,3.4-7.5,7.5-7.5s7.5,3.4,7.5,7.5
			C286.3,366,282.9,369.4,278.8,369.4z"/>
		<path class="st30" d="M87.6,294.3l56.7,33.2l25.3,3.4l0,13.6c0,0.7-0.2,1.4-0.5,2.1c-0.4,0.6-0.9,1.1-1.5,1.4L120,375.5
			c-2.5,1.4-5.5,1.4-7.9,0l-81.6-46.1c-1.4-0.8-2.1-2.2-2-3.7l0,0v-14l16.8,2.3l34.4-19.7C82.1,292.8,85.2,292.8,87.6,294.3z"/>
		<path class="st36" d="M169.7,340l-49.7,29c-2.5,1.4-5.5,1.5-8,0l-83.5-47.6"/>
		<path class="st46" d="M152.8,348.2v3.4l-20.3,12.2v-3.6L152.8,348.2z"/>
		<path class="st46" d="M48.5,331.4v3.4l43.8,24.9v-3.6L48.5,331.4z"/>
		<path class="st31" d="M30.5,308.5l49.1-28.2c2.5-1.4,5.6-1.4,8,0l80.1,46.9c1.9,1.1,2.5,3.6,1.4,5.5c-0.4,0.6-0.9,1.1-1.5,1.4
			L120,361.5c-2.5,1.4-5.5,1.4-7.9,0l-81.6-46.1c-1.9-1.1-2.6-3.5-1.5-5.5C29.3,309.3,29.9,308.8,30.5,308.5z"/>
		<path class="st47" d="M119,312.9l31.4,17.8l-4.9,2.6l-31-17.6L119,312.9z"/>
		<path class="st48" d="M107,319.9l31.4,17.8l-4.9,2.6l-31-17.6L107,319.9z"/>
		<path class="st48" d="M94,326.9l31.4,17.8l-4.9,2.6l-31-17.6L94,326.9z"/>
		<path class="st49" d="M79.6,257.3l56.7,33.2l25.3,3.4l0,13.6c0,0.7-0.2,1.4-0.5,2.1c-0.4,0.6-0.9,1.1-1.5,1.4L112,338.5
			c-2.5,1.4-5.5,1.4-7.9,0l-81.6-46.1c-1.4-0.8-2.1-2.2-2-3.7l0,0v-14l16.8,2.3l34.4-19.7C74.1,255.8,77.2,255.8,79.6,257.3z"/>
		<path class="st31" d="M22.5,271.5l49.1-28.2c2.5-1.4,5.6-1.4,8,0l80.1,46.9c1.9,1.1,2.5,3.6,1.4,5.5c-0.4,0.6-0.9,1.1-1.5,1.4
			L112,324.5c-2.5,1.4-5.5,1.4-7.9,0l-81.6-46.1c-1.9-1.1-2.6-3.5-1.5-5.5C21.3,272.3,21.9,271.8,22.5,271.5z"/>
		<path class="st50" d="M38.5,277.5c2.8,0,5-1.5,5-3.3c0-1.8-2.2-3.3-5-3.3c-2.8,0-5,1.5-5,3.3C33.5,276,35.7,277.5,38.5,277.5z"/>
		<path class="st50" d="M75.5,255.5c2.8,0,5-1.5,5-3.3c0-1.8-2.2-3.3-5-3.3s-5,1.5-5,3.3C70.5,254,72.7,255.5,75.5,255.5z"/>
		<path class="st50" d="M143.5,296.5c2.8,0,5-1.5,5-3.3c0-1.8-2.2-3.3-5-3.3c-2.8,0-5,1.5-5,3.3C138.5,295,140.7,296.5,143.5,296.5z
			"/>
		<path class="st50" d="M108.5,316.5c2.8,0,5-1.5,5-3.3c0-1.8-2.2-3.3-5-3.3c-2.8,0-5,1.5-5,3.3C103.5,315,105.7,316.5,108.5,316.5z
			"/>
		<path class="st51" d="M66,283.9l31.4,17.8l-4.9,2.6l-31-17.6L66,283.9z"/>
		<path class="st43" d="M78.8,270c5.4-2.8,11.8-2.6,17.1,0.4l15.8,9.1l8.7,2.5l0,5.3c0.2,2.2-0.9,4.4-3,5.5
			c-5.6,2.9-12.3,2.8-17.8-0.4l-21.3-12.4c-0.9-0.5-1.6-1.3-2.1-2.2c-0.6-1-0.8-2.2-0.6-3.3l0-5.4L78.8,270z"/>
		<path class="st35" d="M78.4,272.9l21.3,12.4c5.5,3.2,12.2,3.3,17.8,0.4c2.7-1.4,3.8-4.8,2.4-7.6c-0.5-0.9-1.2-1.7-2.2-2.2
			l-21.7-12.5c-5.4-3.1-11.9-3.2-17.4-0.2c-2.7,1.5-3.7,4.9-2.3,7.6C76.8,271.6,77.5,272.4,78.4,272.9z"/>
		<path class="st36" d="M161.7,302.4l-49.7,29c-2.5,1.4-5.5,1.5-8,0l-83.5-47.6"/>
		<path class="st46" d="M39.5,293.1v3.4l43.8,25.4v-3.6L39.5,293.1z"/>
		<path class="st46" d="M145.8,310v3.4l-20.3,12.3V322L145.8,310z"/>
		<path class="st36" d="M307.3,442.7l27.8,16.4c3,1.8,6.8,1.8,9.9,0.2l96.9-53.1"/>
		<path class="st52" d="M373.4,448.4c2.8,0,5-2.2,5-5c0-2.8-2.2-5-5-5c-2.8,0-5,2.2-5,5C368.4,446.1,370.7,448.4,373.4,448.4z"/>
		<path class="st36" d="M246,380.1l-30.8-18.2c-3.1-1.8-7-1.9-10.1,0l-29,16.9c-3.2,1.9-7.3,1.8-10.4-0.2l-24.2-15.5"/>
		<path class="st52" d="M192.9,373.8c2.8,0,5-2.2,5-5c0-2.8-2.2-5-5-5c-2.8,0-5,2.2-5,5C187.9,371.6,190.1,373.8,192.9,373.8z"/>
		<path class="st30" d="M143.6,112.2c3.1-1.8,6.9-1.8,10,0l61.8,35.3l8-0.8v8.1c0,1.8-0.9,3.5-2.5,4.5l-95.4,55.3
			c-3.1,1.8-6.9,1.8-10,0l-66.8-38.2c-0.8-0.4-1.4-1.1-1.8-1.8c-0.5-0.8-0.7-1.7-0.7-2.5l0-0.1v-8l10.7-1L143.6,112.2z"/>
		<path class="st31" d="M125.4,206.5l95.4-55.3c2.4-1.4,3.2-4.4,1.8-6.8c-0.4-0.8-1.1-1.4-1.8-1.8l-67.2-38.4c-3.1-1.8-6.9-1.8-10,0
			l-94.9,55.4c-2.4,1.4-3.2,4.5-1.8,6.8c0.4,0.8,1.1,1.4,1.8,1.8l66.8,38.2C118.6,208.3,122.4,208.3,125.4,206.5z"/>
		<path class="st50" d="M88.5,184.5c2.8,0,5-1.5,5-3.3c0-1.8-2.2-3.3-5-3.3s-5,1.5-5,3.3C83.5,183,85.7,184.5,88.5,184.5z"/>
		<path class="st53" d="M68.9,161.1l55.8,32c1.9,1.1,4.1,1.1,6,0l70-40.5c1.4-0.8,1.9-2.7,1.1-4.1c-0.3-0.5-0.6-0.8-1.1-1.1
			l-56.1-32.2c-1.9-1.1-4.2-1.1-6,0l-69.7,40.6c-1.4,0.8-1.9,2.7-1.1,4.1C68,160.4,68.4,160.8,68.9,161.1z"/>
		<path class="st30" d="M168,120.7c1.4-0.7,3.1-0.7,4.5,0.1l17.9,10.4c0.7,0.4,0.9,1.3,0.5,2c-0.1,0.2-0.3,0.4-0.5,0.5
			c-1.4,0.8-3,0.8-4.4,0l-18-10.5c-0.7-0.4-0.9-1.3-0.5-2C167.6,121,167.8,120.8,168,120.7z"/>
		<path class="st54" d="M124.9,161.9l-6.9-14.7v-6.7l49.6,7.2v7l-17.1,10.3L124.9,161.9z"/>
		<path class="st55" d="M124.9,154.9l-6.9-14.7l18.5-11.2l25,4l6.1,14.6l-17.1,10.3L124.9,154.9z"/>
		<path class="st56" d="M150.4,145.7l-18.6,3.4l7.5-4.4l-6.9-4l19.4-3.3L144,142L150.4,145.7z"/>
		<path class="st45" d="M97,156.9l31.4,17.8l-4.9,2.6l-31-17.6L97,156.9z"/>
		<path class="st30" d="M499.7,339.5c2.6-1.5,5.7-1.4,8.2,0.1l32.9,20.3l8-1.4l0,8.2c0.2,1.5-0.6,3-2,3.9l-78.8,46.2
			c-2.5,1.5-5.6,1.5-8.1,0l-40.3-23.7c-0.6-0.3-1.1-0.8-1.4-1.4c-0.5-0.8-0.6-1.7-0.5-2.5l0,0v-8.3l15.7-2.7L499.7,339.5z"/>
		<path class="st31" d="M419.7,384.1l40.3,23.7c2.5,1.5,5.6,1.5,8.1,0l78.8-46.2c1.9-1.1,2.5-3.6,1.4-5.5c-0.3-0.6-0.8-1-1.4-1.4
			l-39-24.1c-2.5-1.5-5.7-1.6-8.2-0.1l-80,46.6c-1.9,1.1-2.6,3.6-1.4,5.5C418.6,383.2,419.1,383.7,419.7,384.1z"/>
		<path class="st53" d="M431.4,381.6l31.9,18.5c1.9,1.1,4.2,1.1,6.1,0l66.2-38.8c1.4-0.8,1.9-2.7,1.1-4.1c-0.3-0.4-0.6-0.8-1.1-1.1
			l-31.8-18.5c-1.9-1.1-4.2-1.1-6,0l-66.3,38.7c-1.4,0.8-1.9,2.7-1.1,4.1C430.6,380.9,431,381.3,431.4,381.6z"/>
		<path class="st31" d="M442.2,357.7l30.9-18.9l41,24.6l-32,18.5L442.2,357.7z"/>
		<path class="st45" d="M451.5,374.9l20.8,11.9l-3.1,1.6l-20.7-11.9L451.5,374.9z"/>
		<path class="st55" d="M442.2,347.7l30.9-18.9l41,24.6l-32,18.5L442.2,347.7z"/>
		<path class="st45" d="M471.7,339.8l23.2,13.5l-3.1,1.6l-23.1-13.4L471.7,339.8z"/>
		<path class="st57" d="M462.7,344.8l23.2,13.5l-3.1,1.6l-23.1-13.4L462.7,344.8z"/>
		<path class="st36" d="M413.8,340.1l33.8,21"/>
		<path class="st36" d="M35.4,263.5L4.6,245.1c-2.8-1.7-3.8-5.4-2.1-8.2c0.5-0.8,1.2-1.6,2.1-2.1L75.7,192"/>
		<path class="st37" d="M19.4,230.4c2.8,0,5-2.2,5-5c0-2.8-2.2-5-5-5c-2.8,0-5,2.2-5,5C14.4,228.1,16.6,230.4,19.4,230.4z"/>
		<path class="st37" d="M238.2,140c2.8,0,5-2.2,5-5c0-2.8-2.2-5-5-5c-2.8,0-5,2.2-5,5C233.2,137.7,235.4,140,238.2,140z"/>
		<path class="st36" d="M195.9,173.5l21.7,13.7"/>
		<path class="st34" d="M252.1,190.1l185.3,106.1"/>
		<path class="st34" d="M241.7,196l185.5,106.1"/>
		<path class="st34" d="M230.5,202.4l185.8,106.2"/>
		<path class="st34" d="M218.9,209.1l185.8,106.2"/>
		<path class="st34" d="M218.7,222.2l55.7-32.7"/>
		<path class="st34" d="M230,228.7l55.7-32.7"/>
		<path class="st34" d="M241.7,235.6l55.7-32.7"/>
		<path class="st34" d="M254.5,243.1l55.7-32.7"/>
		<path class="st34" d="M267.7,250.7l55.7-32.7"/>
		<path class="st34" d="M280.6,258.2l55.7-32.7"/>
		<path class="st34" d="M293.5,265.4l55.7-32.7"/>
		<path class="st34" d="M306.6,273.1l55.7-32.7"/>
		<path class="st34" d="M320.6,281.1l55.7-32.7"/>
		<path class="st34" d="M334.5,289.5l55.7-32.7"/>
		<path class="st34" d="M349.8,298.1l55.7-32.7"/>
		<path class="st34" d="M364.2,305.9l55.7-32.7"/>
		<path class="st34" d="M378.4,314.4l55.7-32.7"/>
	</g>
	
		<image style="overflow:visible;" width="500" height="300" xlink:href="../src/components/100gbps-logo.png"  transform="matrix(0.1476 8.584402e-02 -8.584402e-02 0.1476 378.7715 86.9718)">
	</image>
	
		<image style="overflow:visible;" width="500" height="300" xlink:href="../src/components/100gbps-logo.png"  transform="matrix(5.931548e-02 3.262820e-02 -3.262820e-02 5.931548e-02 236.9579 24.4662)">
	</image>
</g>
</svg>
