<svg width="620" height="150" xmlns="http://www.w3.org/2000/svg">
 <style type="text/css">.st0{fill:#FFFFFF;}
	.st1{fill:#093071;}
	.st2{fill:#5E8CDA;}
	.st3{fill:#F5CD21;}
	.st4{fill:#FDDD75;}</style>

 <g>
  <title>background</title>
  <rect fill="none" id="canvas_background" height="152" width="622" y="-1" x="-1"/>
 </g>
 <g>
  <title>Layer 1</title>
  <g id="svg_1">
   <path id="svg_2" d="m141.9,302.7l-7.6,7.6l7.6,-7.6c0,0 0,0 0,0z" class="st0"/>
  </g>
  <g id="svg_3">
   <polygon id="svg_4" points="129,315.6000061035156 129,315.6000061035156 134.1999969482422,310.29998779296875 " class="st0"/>
  </g>
  <g id="svg_5">
   <path id="svg_6" d="m171,35.5l0,66.9c0,0.6 0.5,1.2 1.1,1.2c3.5,0.3 7.4,0.3 11.6,0c3.4,-0.3 7.5,-0.7 12.5,-1.5c-0.2,1 -0.3,2.1 -0.3,3.3c0,1 0.1,2.3 0.3,3.6l-39.8,0l0,-73.6c0.8,0.1 1.7,0.2 3,0.4c1.8,0.3 3.6,0.3 4.7,0l3.6,0c1.2,-0.1 2.4,-0.2 3.3,-0.3zm47.7,3.7c-2.1,0.3 -3.5,0.3 -4.6,0l-3.6,0c-1.3,-0.2 -2.2,-0.3 -3,-0.4l0,70.3l13.9,0l0,-70.3c-0.7,0.1 -1.6,0.2 -2.7,0.4zm13.8,-0.4c0.1,1 0.2,2 0.2,3c0,1.3 -0.1,2.4 -0.2,3.4l2.3,0c6.6,-0.8 12.1,-1.3 16.3,-1.3c0.7,0 1.2,0.5 1.2,1.2l0,64l13.5,0l0,-64c0,-0.7 0.5,-1.2 1.2,-1.2c3.1,0 7.5,0.3 13.1,0.8c1.4,0.2 2.9,0.3 4.5,0.4c-0.2,-1 -0.2,-2.1 0,-3.3c-0.2,-1 -0.2,-2 0,-3l-52.1,0l0,0zm63.2,0l0,70.3l38,0c-0.2,-1.3 -0.3,-2.4 -0.3,-3.4c0,-1.1 0.1,-2.1 0.2,-3.1c-2.6,0.4 -5.5,0.7 -8.6,0.9c-3.6,0.3 -8.5,0.4 -14.7,0.4c-0.7,0 -1.2,-0.5 -1.2,-1.2l0,-27.2c0,-0.7 0.5,-1.2 1.2,-1.2l10.2,0c3.4,0.2 6.1,0.4 8.8,0.6l2,0.1c-0.1,-0.3 -0.1,-0.6 -0.2,-0.9l0,-4.9c0,-0.1 0,-0.3 0.1,-0.4c0,-0.1 0.1,-0.2 0.1,-0.3c-3.6,0.4 -6.9,0.6 -10.8,0.6l-10.2,0c-0.7,0 -1.2,-0.5 -1.2,-1.2l0,-23c0,-0.7 0.5,-1.2 1.2,-1.2c7.5,0 15.4,0.5 23.4,1.5c-0.3,-1.1 -0.4,-2.2 -0.4,-3.2c0,-1.2 0.1,-2.3 0.4,-3.4l-38,0.2l0,0zm95.2,48.7c-0.3,-8.7 -7,-16.4 -19.9,-22.9c-9.6,-4.9 -14.2,-9.7 -14.2,-14.6c0,-7.9 4.6,-12.3 13.4,-12.6c6,0 10.6,3.2 13.7,9.5c0.3,-1.1 0.8,-2.5 1.4,-4.3c0.7,-1.9 1.3,-3.5 1.8,-4.8c-4.6,-2.7 -10.1,-4.3 -16.5,-4.5c-15.9,0.8 -24,8.2 -24.5,22.4c0,9.6 6.1,17.3 18.1,22.9c10,4.6 15.1,9.8 15.1,15.5c-0.6,8.1 -5.4,12.3 -14.3,12.6c-8.8,-0.3 -14.2,-4.4 -16.3,-12.2l-0.2,0c-0.6,4.3 -1.4,8.5 -2.6,12.5c5.3,2 10.8,3.2 16.4,3.4c17.7,0.1 27.5,-8.3 28.6,-22.9zm23.2,-10.1c-0.2,0 -0.5,0.1 -0.8,0.3c-0.2,0.2 -0.4,0.5 -0.4,0.8l0,30.6l-14,0l0,-70.3l25.2,0c14.4,0 21.5,5.5 21.8,16.8c0.1,6.2 -1.6,11.1 -5,14.6c-4.7,4.8 -13,7.3 -24.6,7.3c-0.7,-0.1 -1.4,-0.1 -2.2,-0.1zm-0.1,-3.5c0.5,0.1 1.1,0.1 1.7,0.1c1.7,0 3.7,-0.3 5.9,-1c6.3,-1.8 9.9,-7 10.4,-15.4c-0.6,-9.5 -4.3,-14.8 -11.2,-15.7l-6.7,0c-0.6,0 -1.2,0.5 -1.2,1.2l0,29.7c0.1,0.5 0.5,1 1.1,1.1zm87.9,-35.1l0,70.3l38.1,0c-0.2,-1.3 -0.3,-2.5 -0.3,-3.4c0,-1.1 0.1,-2.2 0.3,-3.1c-2.6,0.4 -5.5,0.7 -8.6,0.9c-3.6,0.3 -8.4,0.4 -14.7,0.4c-0.6,0 -1.2,-0.5 -1.2,-1.2l0,-27.2c0,-0.6 0.5,-1.2 1.2,-1.2l11.3,0c4.2,0.3 8.1,0.5 11.6,0.7c-0.1,-0.3 -0.1,-0.6 -0.2,-1l0,-4.9c0,-0.1 0,-0.3 0.1,-0.4c0,-0.1 0.1,-0.2 0.1,-0.4c-3.5,0.4 -7.4,0.6 -11.5,0.6l-11.3,0c-0.6,0 -1.2,-0.5 -1.2,-1.2l0,-23c0,-0.6 0.5,-1.2 1.2,-1.2c7.5,0 15.4,0.5 23.5,1.5c-0.3,-1.1 -0.4,-2.2 -0.4,-3.2c0,-1.2 0.1,-2.4 0.4,-3.4l-38.4,0.4l0,0zm71,70.3l-23.2,0l0,-70.3l29.8,0c20.1,1.4 30.4,12.2 31.5,33c-1.4,23.4 -14.2,36 -38.1,37.3zm22.5,-37.2c0,-19.3 -8.7,-29.1 -25.8,-29.1l-5.2,0c-0.6,0 -1.2,0.5 -1.2,1.2l0,60c0,0.6 0.5,1.2 1.2,1.2l4.6,0c8.7,0 15.4,-2.9 19.8,-8.5c4.3,-5.5 6.6,-13.9 6.6,-24.8zm-141.6,-33.1l0,70.3l38.1,0c-0.2,-1.3 -0.3,-2.5 -0.3,-3.4c0,-1.1 0.1,-2.2 0.3,-3.1c-2.6,0.4 -5.5,0.7 -8.6,0.9c-3.6,0.3 -8.4,0.4 -14.7,0.4c-0.6,0 -1.2,-0.5 -1.2,-1.2l0,-27.2c0,-0.6 0.5,-1.2 1.2,-1.2l11.3,0c4.2,0.3 8.1,0.5 11.6,0.7c-0.1,-0.3 -0.1,-0.6 -0.2,-1l0,-4.9c0,-0.1 0,-0.3 0.1,-0.4c0,-0.1 0.1,-0.2 0.1,-0.4c-3.5,0.4 -7.4,0.6 -11.5,0.6l-11.3,0c-0.6,0 -1.2,-0.5 -1.2,-1.2l0,-23c0,-0.6 0.5,-1.2 1.2,-1.2c7.5,0 15.4,0.5 23.5,1.5c-0.3,-1.1 -0.4,-2.2 -0.4,-3.2c0,-1.2 0.1,-2.4 0.4,-3.4l-38.4,0.4l0,0z" class="st1"/>
   <g id="svg_7">
    <g id="svg_8">
     <path id="svg_9" d="m120.4,72.9l-33,-32.9l-14,17.8l15.1,15.1c1.4,1.4 1.4,3.7 0,5.1l-4.4,4.4c0,0 3,4.4 3.1,4.7c0.7,1.4 0.8,4.6 -1.1,6l-34.4,26.4c0,8.9 0,27.1 0,27.1c0,0 68.7,-68.6 68.7,-68.6c1.4,-1.4 1.4,-3.7 0,-5.1z" class="st2"/>
     <path id="svg_10" d="m43.9,77c-1.4,-1.4 -1.4,-3.7 0,-5.1l4.4,-4.4l-3,-4.3c-1.4,-2 -1,-4.9 1,-6.4l34.4,-26.4l0,-27.1l0,0l0,0l-68.7,68.7c-1.4,1.4 -1.4,3.7 0,5.1l33,32.9l14,-17.8l-15.1,-15.2z" class="st1"/>
    </g>
    <g id="svg_11">
     <polygon id="svg_12" points="66.80000305175781,98.79998779296875 66.80000305175781,98.79998779296875 50.900001525878906,114.70001220703125 " class="st0"/>
    </g>
    <g id="svg_13">
     <g id="svg_14">
      <g id="svg_15">
       <path id="svg_16" d="m98.1,19.9c0.5,0 0.9,0.3 1.1,0.7c0.4,0.7 -0.1,1.5 -0.6,2.1l-30.2,38.3c-0.4,0.6 -0.5,1.6 -0.1,2.2c0,0 16.3,23.6 16.8,24.4c0.6,0.9 0.7,3.5 -0.8,4.6l-48.5,37.2c-0.7,0.5 -1.1,0.7 -1.6,0.7c-0.4,0 -0.9,-0.3 -1.1,-0.7c-0.4,-0.7 0.1,-1.5 0.6,-2.1l30.4,-38.3c0.4,-0.6 0.5,-1.6 0.1,-2.2l-16.8,-24.2c-1.1,-1.5 -0.7,-3.7 0.7,-4.8l48.5,-37.2c0.7,-0.7 1.1,-0.7 1.5,-0.7m0,-0.7c-0.6,0 -1.1,0.2 -1.9,0.8l-48.5,37.2c-1.7,1.3 -2.1,3.9 -0.9,5.7l16.8,24.2c0.2,0.4 0.2,1.1 -0.1,1.5l-30.2,38.3c-0.4,0.5 -1.2,1.6 -0.7,2.7c0.3,0.6 0.9,1 1.6,1c0.8,0 1.3,-0.3 2,-0.8l48.5,-37.2c1.7,-1.3 1.7,-4.3 0.9,-5.4c-0.6,-0.8 -16.8,-24.4 -16.8,-24.4c-0.2,-0.4 -0.2,-1.1 0,-1.5l30.2,-38.3c0.4,-0.5 1.2,-1.5 0.7,-2.7c-0.3,-0.6 -0.9,-1.1 -1.6,-1.1l0,0z" class="st2"/>
      </g>
     </g>
     <g id="svg_17">
      <path id="svg_18" d="m84,87.6c0.4,0.6 0.7,2.8 -0.2,3.6l-48.5,37.2c-0.4,0.3 -0.7,0.5 -0.8,0.5c-0.2,0 0,-0.3 0.4,-0.9l30.1,-38.2c0.8,-1 0.8,-2.6 0.1,-3.6l-16.8,-24.2c0,-0.1 35.3,25 35.7,25.6z" class="st3"/>
     </g>
     <g id="svg_19">
      <path id="svg_20" d="m84,87.6l-16.6,-23.8c-0.7,-1 -0.6,-2.6 0.1,-3.6l30.2,-38.3c0.4,-0.6 0.6,-0.9 0.4,-0.9c-0.1,0 -0.4,0.1 -0.8,0.5l-48.5,37.2c-1,0.7 -1.2,2.2 -0.5,3.2l35.7,25.7z" class="st4"/>
     </g>
    </g>
   </g>
  </g>
 </g>
</svg>