<svg width="615" height="150" xmlns="http://www.w3.org/2000/svg">
 <style type="text/css">.st0{fill:#2D5992;}</style>

 <g>
  <title>background</title>
  <rect fill="none" id="canvas_background" height="152" width="617" y="-1" x="-1"/>
 </g>
 <g>
  <title>Layer 1</title>
  <g id="svg_1">
   <path id="svg_2" d="m420.3,103.7l-8.1,0l0,-1.8c0,-8.3 0,-16.5 0,-24.8c0,-0.6 0,-1.1 -0.1,-1.7c-0.6,-3.9 -3,-6.2 -6.9,-6.6c-2.7,-0.2 -5.3,-0.1 -7.9,0.6c-1.5,0.4 -1.6,0.4 -1.6,2c0,10.1 0,20.2 0,30.3c0,0.6 -0.1,1.3 -0.1,2l-8,0c0,-0.5 -0.1,-0.9 -0.1,-1.4c0,-12 0,-24 0,-36c0,-1.4 0,-1.5 1.2,-1.9c6.7,-2.3 13.6,-3.1 20.6,-1.9c1.1,0.2 2.2,0.5 3.3,1c4.9,2 7.6,5.8 7.7,11.1c0.2,9.5 0,19 0,28.4c0.1,0.2 0.1,0.4 0,0.7" class="st0"/>
   <path id="svg_3" d="m453.4,62l8,0c0,0.5 0.1,1 0.1,1.4c0,12 0,24 0,36c0,1.4 0,1.4 -1.3,2c-2.6,1 -5.4,1.6 -8.1,1.9c-3.6,0.4 -7.2,0.7 -10.7,0c-1.7,-0.3 -3.3,-0.7 -4.9,-1.4c-4.1,-1.7 -6.2,-5.1 -6.9,-9.4c-0.2,-1.4 -0.3,-2.8 -0.3,-4.2c0,-8.2 0,-16.3 0,-24.5l0,-1.8l8.2,0l0,1.8c0,8.3 0,16.5 0,24.8c0,1 0.1,2 0.3,3c0.5,2.4 1.9,3.9 4.2,4.7c2.1,0.7 4.2,0.7 6.4,0.5c1.3,-0.1 2.6,-0.5 4,-0.7c0.7,-0.1 1,-0.5 1,-1.3c0,-0.5 0,-1 0,-1.5c0,-9.7 0,-19.5 0,-29.2c-0.1,-0.6 0,-1.3 0,-2.1" class="st0"/>
   <path id="svg_4" d="m467.4,103.8c4.8,-7.4 9.4,-14.5 14.1,-21.7c-4.3,-6.6 -8.5,-13.2 -13,-20.1l3.7,0c1.4,0 2.8,0.1 4.2,0c1,-0.1 1.6,0.4 2.1,1.3c2.3,4 4.6,7.9 7,11.9c0.3,0.5 0.6,0.9 1,1.6c0.4,-0.6 0.7,-0.9 0.9,-1.3c2.4,-4 4.8,-8 7.1,-12.1c0.5,-1 1.2,-1.3 2.2,-1.3c2,0.1 4.1,0 6.1,0c0.4,0 0.9,0 1.5,0.1c-0.4,0.6 -0.6,1.1 -0.9,1.5c-3.7,5.8 -7.4,11.5 -11.2,17.3c-0.6,1 -0.6,1.6 0,2.5c4,6 7.9,12.1 11.8,18.1c0.4,0.7 0.9,1.3 1.4,2.2c-0.5,0.1 -0.8,0.1 -1.1,0.1c-2.3,0 -4.7,0 -7,0c-0.9,0 -1.3,-0.3 -1.8,-1c-2.7,-4.5 -5.4,-9 -8.1,-13.5c-0.3,-0.5 -0.6,-0.9 -1,-1.6c-0.5,0.8 -0.8,1.3 -1.2,1.8c-2.6,4.4 -5.3,8.7 -7.9,13.1c-0.5,0.8 -1,1.2 -2,1.2c-2.3,-0.2 -4.9,-0.1 -7.9,-0.1" class="st0"/>
   <path id="svg_5" d="m335,42.8l8.1,0c0.6,0.7 0.4,1.5 0.4,2.2c0,16.3 0,32.5 0,48.8c0,0.9 0.1,1.7 0.1,2.7l18.8,0l0,7c-1.1,0.3 -25.2,0.4 -27.4,0.1c0,-4 0,-8 0,-12.1c0,-4.1 0,-8.1 0,-12.2l0,-12.3c0,-4.1 0,-8.1 0,-12.2c0,-3.9 -0.1,-7.9 0,-12" class="st0"/>
   <path id="svg_6" d="m568.5,73.5c0.1,5.3 -0.4,10.5 -1.8,15.5c-1,3.5 -2.5,6.7 -4.9,9.4c-2.8,3.1 -6.2,4.8 -10.3,5.3c-2.7,0.3 -5.3,0.2 -7.8,-0.5c-5,-1.4 -8.3,-4.8 -10.6,-9.5c-1.6,-3.3 -2.4,-6.8 -3,-10.4c-0.7,-4.5 -0.7,-9 -0.6,-13.5c0.2,-5.3 1.2,-10.4 3.3,-15.2c1.5,-3.3 3.5,-6.2 6.4,-8.4c3.7,-2.8 7.8,-3.6 12.3,-3.1c4.3,0.5 7.8,2.3 10.6,5.6c1.6,2 2.8,4.2 3.8,6.6c1.7,4.5 2.4,9.2 2.7,14c0,1.5 -0.1,2.8 -0.1,4.2m-34.2,0.2c0.1,2.4 0.2,4.7 0.5,7.1c0.4,3.5 1.1,7 2.7,10.2c2.1,4.1 5.2,6.8 9.9,7.3c4.1,0.4 7.8,-0.6 10.7,-3.9c1.8,-2 3,-4.5 3.8,-7.1c1,-3.2 1.4,-6.6 1.6,-10c0.4,-5.3 0,-10.6 -1,-15.8c-0.7,-3.3 -1.9,-6.3 -4.1,-8.9c-4.3,-5.2 -12.6,-5.1 -16.9,-1.1c-2.5,2.3 -4.1,5.1 -5.1,8.4c-1.6,4.5 -2.1,9.1 -2.1,13.8" class="st0"/>
   <path id="svg_7" d="m573.2,93.4c0.6,0.3 1,0.5 1.5,0.8c4.5,2.3 9.3,3.7 14.4,3.6c1.9,0 3.8,-0.4 5.5,-1.3c3.1,-1.6 4.7,-4.3 5.1,-7.9c0.4,-4.3 -1.1,-7.7 -4.6,-10.2c-2.4,-1.7 -4.9,-2.9 -7.5,-4.1c-2.5,-1.2 -5.1,-2.4 -7.5,-3.8c-3,-1.8 -5.3,-4.4 -6.2,-8c-1,-4.2 -0.8,-8.4 1,-12.4c1.9,-4.2 5.2,-6.6 9.5,-7.4c5.8,-1.1 11.3,-0.2 16.5,2.7c1.3,0.7 1.4,0.9 0.9,2.3c-0.4,1.2 -0.8,2.4 -1.2,3.8c-0.5,-0.2 -1,-0.3 -1.3,-0.5c-2.9,-1.5 -6,-2.4 -9.3,-2.7c-1.9,-0.2 -3.8,-0.1 -5.6,0.5c-3.8,1.3 -6.3,4.7 -6,9.6c0.2,3 1.5,5.3 3.9,6.9c1.8,1.2 3.7,2.1 5.7,3.1c2.5,1.3 5,2.4 7.4,3.6c1.1,0.6 2.1,1.2 3,2c5,3.8 6.9,8.9 6.3,15.1c-0.2,1.8 -0.5,3.6 -1.2,5.2c-1.9,4.9 -5.5,7.8 -10.4,8.8c-7.3,1.4 -14.2,0.1 -20.6,-3.5c-1.4,-0.8 -1.4,-1 -0.9,-2.4c0.3,-0.9 0.7,-1.8 1,-2.7c0.2,-0.4 0.4,-0.7 0.6,-1.1" class="st0"/>
   <path id="svg_8" d="m321.6,62.2c0,-0.7 0.1,-1.4 0.1,-2c0,-5.2 0,-10.3 0,-15.5c0,-0.6 0.1,-1.2 0.1,-1.8l4,0c0.1,0.5 0.2,1 0.2,1.5c0,1.6 0,3.2 0,4.9c0,16.6 0,33.1 0,49.7c0,1 -0.3,1.5 -1.1,1.9c-2.4,1.4 -5,2.1 -7.6,2.5c-3.1,0.5 -6.2,0.6 -9.4,0.1c-4.8,-0.7 -8,-3.3 -9.8,-7.9c-1.1,-2.9 -1.7,-6 -1.9,-9.2c-0.3,-4.9 -0.2,-9.8 1,-14.6c0.3,-1 0.6,-2 1,-3c1.9,-4.5 5.3,-6.9 10.1,-7.5c4.1,-0.5 8.1,-0.1 12.2,0.8c0.3,0 0.6,0.1 1.1,0.1m0.1,20.3c0,-4.8 0,-9.6 0,-14.4c0,-1.5 0,-1.6 -1.4,-1.9c-3.3,-1 -6.6,-1.4 -10,-1.2c-3.4,0.2 -6.2,1.6 -7.7,4.9c-0.7,1.7 -1.3,3.4 -1.6,5.2c-0.8,4.6 -0.8,9.2 -0.2,13.8c0.3,2 0.8,4 1.4,5.9c1,2.8 3.1,4.5 5.9,5c4,0.8 8,0.3 12,-0.8c1.5,-0.4 1.5,-0.5 1.5,-2.1c0.1,-4.9 0.1,-9.7 0.1,-14.4" class="st0"/>
   <path id="svg_9" d="m218.9,82.5c0,-3.7 0.1,-7.5 1.2,-11.1c0.2,-0.6 0.4,-1.3 0.6,-1.9c1.6,-4.4 4.7,-7.2 9.3,-8c3.4,-0.6 6.8,-0.6 10.2,0.4c3.3,0.9 5.6,3 7.1,6c1.2,2.4 2,5 2.2,7.7c0.3,3.6 0.3,7.3 0.3,10.9c0,2.8 -0.7,5.6 -1.6,8.3c-1.7,5.1 -5.1,8.1 -10.4,8.7c-2.7,0.3 -5.4,0.3 -8,-0.2c-4.5,-0.9 -7.5,-3.6 -9.1,-7.9c-1.1,-3.1 -1.8,-6.2 -1.8,-9.5c0,-1.1 0,-2.2 0,-3.4m26.8,0.2c-0.2,-2.3 -0.2,-4.7 -0.5,-7c-0.3,-2.3 -0.9,-4.6 -2.1,-6.6c-1,-1.8 -2.5,-3.1 -4.6,-3.7c-2.2,-0.6 -4.4,-0.7 -6.7,-0.4c-3.6,0.5 -6,2.5 -7.1,5.9c-0.6,1.7 -1.1,3.6 -1.3,5.4c-0.3,3.5 -0.3,7.1 -0.2,10.6c0.1,2.6 0.5,5.1 1.5,7.6c1.1,2.6 2.9,4.4 5.6,5.1c2.4,0.6 4.7,0.6 7.1,0.2c3.4,-0.6 5.6,-2.7 6.7,-6c0.2,-0.5 0.3,-1 0.4,-1.5c0.9,-3.1 1.1,-6.3 1.2,-9.6" class="st0"/>
   <path id="svg_10" d="m195.1,97.1c0.5,1.2 1,2.3 1.5,3.5c-0.2,0.2 -0.4,0.4 -0.6,0.5c-6.6,3.1 -13.2,3.6 -19.9,0.6c-4.3,-1.9 -7.3,-5.4 -9.5,-9.6c-1.9,-3.7 -2.9,-7.7 -3.4,-11.9c-0.5,-4.1 -0.5,-8.2 0,-12.3c0.7,-5.9 2.4,-11.4 6.2,-16c4.1,-5 9.5,-7.3 15.8,-7.2c3.4,0 6.7,0.6 9.9,2.1c0.5,0.2 1,0.5 1.6,0.8c-0.5,1.3 -1,2.5 -1.5,3.8c-0.6,-0.3 -1,-0.4 -1.4,-0.7c-3.5,-1.7 -7.3,-2.2 -11.1,-1.6c-4.3,0.6 -7.6,2.9 -10.1,6.4c-2.3,3.2 -3.5,6.9 -4.2,10.8c-1,6.2 -0.9,12.3 0.5,18.4c1,4.3 2.9,8.1 6.2,11c2.7,2.4 5.8,3.6 9.4,3.7c3.5,0.1 6.8,-0.4 10,-2.1c0.1,-0.1 0.3,-0.1 0.6,-0.2" class="st0"/>
   <path id="svg_11" d="m284,62l4,0c0.4,1.1 0.5,36.8 0.1,39c-1.9,1 -4,1.6 -6.2,2c-4,0.8 -8,1.2 -12,0.5c-1.5,-0.3 -3,-0.7 -4.4,-1.3c-3.9,-1.8 -5.9,-5.2 -6.5,-9.4c-0.2,-1.3 -0.2,-2.5 -0.2,-3.8c0,-8.3 0,-16.6 0,-24.9c0,-0.6 0.1,-1.3 0.1,-2l4.1,0c0,0.7 0.1,1.3 0.1,1.9c0,8.4 0,16.7 0,25.1c0,1.4 0.1,2.8 0.4,4.2c0.8,3.5 3.1,5.6 6.5,6.4c2.5,0.6 5.1,0.5 7.6,0.2c1.7,-0.2 3.4,-0.7 5.1,-1.1c0.9,-0.2 1.2,-0.7 1.2,-1.6c-0.1,-2.4 0,-4.9 0,-7.3c0,-8.6 0,-17.2 0,-25.8c0,-0.7 0.1,-1.4 0.1,-2.1" class="st0"/>
   <path id="svg_12" d="m370.7,62c0.5,0 0.8,-0.1 1.1,-0.1c2.2,0 4.5,0 6.7,0c0.4,1.2 0.5,40 0.1,41.7l-7.9,0l0,-41.6z" class="st0"/>
   <path id="svg_13" d="m209.8,103.7c-0.3,0 -0.6,0.1 -0.8,0.1c-1,0 -2,0 -3,0c-0.4,-1.1 -0.5,-58.8 -0.1,-60.9l3.9,0c0.3,1.2 0.3,59.4 0,60.8" class="st0"/>
   <path id="svg_14" d="m379.5,49.5c0,2.7 -2.2,4.8 -5,4.7c-2.7,-0.1 -4.8,-2.2 -4.8,-4.8c0,-2.6 2.2,-4.7 4.9,-4.7c2.8,0 4.9,2.1 4.9,4.8" class="st0"/>
   <path id="svg_15" d="m511.4,56.3c0.8,-0.3 1.3,0 1.5,0.8c0.2,0.8 0.5,1.6 0.8,2.6c0.7,-0.9 0.8,-1.8 1.1,-2.6c0.2,-0.8 0.6,-1.1 1.6,-0.8c0.3,1.7 0.6,3.5 0.7,5.4c-1.3,0 -0.9,-1 -1,-1.6c-0.1,-0.6 -0.2,-1.3 -0.3,-1.9c-0.1,0 -0.2,0 -0.3,0c-0.3,0.9 -0.6,1.9 -1,2.8c-0.1,0.2 -0.3,0.4 -0.5,0.6c-0.2,-0.2 -0.5,-0.4 -0.6,-0.7c-0.4,-0.9 -0.6,-1.9 -1,-2.9c-1,1.1 -0.1,2.6 -1.1,3.5c-0.1,0 -0.2,0 -0.3,0c-0.5,-0.8 -0.3,-2.9 0.4,-5.2" class="st0"/>
   <path id="svg_16" d="m510.1,56.7c-0.4,0.2 -0.9,0.5 -1.4,0.8l0,4.2c-0.3,0 -0.6,0.1 -1,0.1l0,-4.3c-0.6,-0.3 -1,-0.5 -1.5,-0.7c0.7,-0.7 1.9,-0.8 3.7,-0.4c0,0.1 0.1,0.2 0.2,0.3" class="st0"/>
   <path id="svg_17" d="m59.8,8.3c0.3,-0.1 0.5,-0.2 0.6,-0.3c5.5,-1.7 11.1,-2.8 16.9,-2.5c14.9,0.9 26.9,7.2 35.8,19.2c4.2,5.6 6.8,11.9 8.1,18.8c0.4,1.9 0.1,3.8 -0.3,5.7c-1.6,9.7 -5.9,17.9 -12.9,24.8c-0.2,0.2 -0.4,0.4 -0.6,0.5c-0.1,0 -0.2,0 -0.3,0.1c0.2,-0.6 0.3,-1.1 0.5,-1.7c3.1,-10.7 2.8,-21.2 -0.9,-31.7c-1,-2.8 -2.5,-5.3 -4.3,-7.7c-1.4,-1.8 -2.7,-3.6 -4.1,-5.4c-8.3,-10.7 -19.2,-17.1 -32.5,-19.2c-2,-0.2 -3.9,-0.3 -6,-0.6" class="st0"/>
   <path id="svg_18" d="m97.6,52.8c-8.3,-14.7 -20.3,-24.1 -37,-27.1c-16.6,-3 -31.1,1.5 -44,12.4c0.2,-0.4 0.3,-0.8 0.5,-1.1c6.8,-12.1 16.8,-20 30.3,-23c13.4,-3 26,-0.6 37.5,6.9c1,0.7 1.9,1.5 2.7,2.5c6.6,8.2 9.8,17.6 9.9,28.1c0.2,0.4 0.2,0.8 0.1,1.3" class="st0"/>
   <path id="svg_19" d="m51.8,53.4c-14.6,7.9 -24.1,19.8 -27.1,36.3c-3,16.4 1.6,30.9 12.8,43.6c-0.5,-0.2 -0.8,-0.3 -1,-0.5c-13.1,-7.2 -21.3,-18.1 -24,-32.9c-2.3,-12.5 0.4,-24.1 7.5,-34.6c0.5,-0.7 1,-1.3 1.7,-1.8c7.1,-5.9 15.3,-9.3 24.6,-10.1c1.8,-0.2 3.6,-0.2 5.5,-0.3l0,0.3z" class="st0"/>
   <path id="svg_20" d="m132.1,112.7c-2,4.2 -4.6,7.8 -7.7,11.1c-7.9,8.1 -17.4,12.9 -28.7,14.1c-11.5,1.2 -22,-1.5 -31.5,-8.1c-0.6,-0.4 -1.1,-0.9 -1.5,-1.4c-5.6,-6.6 -9,-14.2 -10.1,-22.8c-0.2,-1.9 -0.3,-3.7 -0.4,-5.6c0,-0.6 0,-1.2 0.2,-1.8c8,14.6 19.9,24 36.3,27c16.4,3 30.9,-1.6 43.4,-12.5" class="st0"/>
   <path id="svg_21" d="m74.2,43.9c-16.1,-4.8 -31.3,-3.2 -45,6.4c-13.7,9.5 -20.7,23 -21.8,39.8c-0.2,-0.4 -0.3,-0.6 -0.4,-0.9c-7.8,-24.7 6.8,-51.5 31.8,-58.4c1,-0.3 2,-0.5 3,-0.8c2.7,-0.7 5.4,-0.3 8,0.3c9.2,1.8 17,6 23.5,12.6c0.3,0.3 0.5,0.6 0.9,1" class="st0"/>
   <path id="svg_22" d="m88.9,142.8c-1.9,0.5 -3.8,1 -5.8,1.4c-20,3.8 -40,-5.8 -49.5,-23.8c-2.4,-4.4 -4,-9.1 -4.8,-14c-0.2,-1.3 0,-2.8 0.2,-4.1c1.4,-10.1 5.8,-18.8 13.1,-25.9c0.2,-0.2 0.5,-0.4 0.8,-0.7c-4.8,16.1 -3.2,31.2 6.3,45c9.5,13.7 23,20.7 39.5,21.8c0.1,0.1 0.1,0.2 0.2,0.3" class="st0"/>
   <path id="svg_23" d="m98,97.9c14.6,-7.9 24,-19.8 27,-36.2c3,-16.4 -1.6,-30.9 -12.4,-43.6c0.7,0.3 1.4,0.7 2,1c12.5,7.5 20.3,18.3 22.7,32.6c2.1,12.4 -0.5,23.8 -7.7,34.2c-0.4,0.6 -1,1.2 -1.6,1.7c-6.8,5.7 -14.7,9.1 -23.5,10.1c-2.2,0.2 -4.3,0.3 -6.5,0.4c0.1,0 0.1,-0.1 0,-0.2" class="st0"/>
   <path id="svg_24" d="m142.8,60.8c1,2.5 1.6,5.2 2,7.8c1.4,11 -0.5,21.3 -6.5,30.8c-7.3,11.6 -17.7,18.7 -31.1,21.3c-1.9,0.4 -3.7,0.1 -5.6,-0.2c-10,-1.6 -18.4,-6.1 -25.4,-13.4c-0.1,-0.1 -0.2,-0.2 -0.3,-0.5c16.1,4.8 31.2,3.2 44.9,-6.3c13.7,-9.5 20.7,-22.9 22,-39.5" class="st0"/>
   <path id="svg_25" d="m93.5,54.5c-0.2,-0.2 -0.4,-0.4 -0.6,-0.6c-2.5,-2.2 -5.2,-4.2 -8.1,-5.9c-0.5,-0.3 -1.1,-0.8 -1.4,-1.3c-4,-6 -9.1,-10.9 -15.3,-14.7c-0.2,-0.1 -0.4,-0.3 -0.6,-0.4c-0.1,0 -0.1,-0.1 -0.3,-0.4c12,4.3 20.7,12 26.3,23.3" class="st0"/>
   <path id="svg_26" d="m30.8,83.7c1.9,-9.3 14.7,-23.8 23.1,-26.3c-0.2,0.3 -0.4,0.5 -0.5,0.7c-2.3,2.5 -4.2,5.3 -6,8.2c-0.3,0.5 -0.7,0.9 -1.1,1.2c-6.1,4.1 -11.1,9.3 -15,15.6c-0.2,0.1 -0.3,0.2 -0.5,0.6" class="st0"/>
   <path id="svg_27" d="m37.9,50.3c7.4,-5.1 27.5,-6.3 34.5,-2.3c-2.3,0.3 -4.6,0.6 -7,1c-1,0.2 -2.1,0.4 -3.1,0.7c-1,0.3 -2,0.3 -3.1,0.1c-6.8,-1.3 -13.6,-1.2 -20.3,0.4c-0.2,0 -0.5,0 -1,0.1" class="st0"/>
   <path id="svg_28" d="m49.4,112.1c-5.5,-11.3 -6.2,-22.8 -2.3,-34.7c0.2,1.5 0.3,3.1 0.5,4.6c0.3,2.1 0.8,4.1 1.2,6.1c0.1,0.6 0.2,1.2 0.1,1.8c-1.5,7.3 -1.3,14.6 0.5,21.9c0,0.1 0,0.2 0,0.3" class="st0"/>
   <path id="svg_29" d="m82.7,119.3c-11.8,-4.3 -20.5,-11.9 -26.2,-23.1c0.2,0.2 0.5,0.3 0.7,0.6c2.5,2.2 5.2,4.1 8,5.8c0.5,0.3 1,0.6 1.2,1.1c4.1,6.2 9.3,11.2 15.7,15.1c0.1,0.1 0.3,0.2 0.4,0.3c0.1,-0.1 0.1,0 0.2,0.2" class="st0"/>
   <path id="svg_30" d="m96.3,93c0.5,-0.6 1.1,-1.2 1.5,-1.8c1.6,-2.3 3.2,-4.6 4.9,-6.9c0.3,-0.5 0.7,-0.9 1.1,-1.2c6,-4 10.9,-9 14.7,-15.1c0.1,-0.2 0.2,-0.4 0.4,-0.5c0,-0.1 0.1,-0.1 0.4,-0.2c-4.4,11.7 -11.9,20.3 -22.8,26c0,-0.2 -0.1,-0.3 -0.2,-0.3" class="st0"/>
   <path id="svg_31" d="m103,73.1c-0.3,-3.8 -0.9,-7.5 -1.9,-11.2c-0.1,-0.4 0,-0.8 0,-1.1c0.9,-4.6 1.3,-9.2 0.8,-13.9c-0.2,-2.5 -0.8,-5 -1.2,-7.5c0,-0.3 -0.1,-0.5 0,-0.8c2.7,5.3 4.2,11 4.5,17c0.5,6 -0.2,11.9 -2.2,17.5" class="st0"/>
   <path id="svg_32" d="m112,100.2c-11.2,5.4 -22.7,6.1 -34.4,2.5c0,-0.1 0,-0.2 0,-0.3c1.2,-0.1 2.4,-0.2 3.6,-0.3c2.4,-0.4 4.7,-0.8 7,-1.3c0.7,-0.1 1.3,-0.2 2,-0.1c7.1,1.4 14.2,1.3 21.3,-0.4c0.2,-0.1 0.4,-0.1 0.5,-0.1" class="st0"/>
  </g>
 </g>
</svg>