<svg width="409.6" height="60" xmlns="http://www.w3.org/2000/svg">

 <g>
  <title>background</title>
  <rect fill="none" id="canvas_background" height="62" width="411.6" y="-1" x="-1"/>
 </g>
 <g>
  <title>Layer 1</title>
  <g id="svg_1">
   <g id="svg_2">
    <path fill="#db2541" id="svg_3" d="m27.307,3.493c-15.057,0 -27.307,12.251 -27.307,27.307s12.25,27.307 27.307,27.307s27.307,-12.25 27.307,-27.307s-12.251,-27.307 -27.307,-27.307zm0,40.96c-7.53,0 -13.653,-6.123 -13.653,-13.653c0,-7.53 6.124,-13.653 13.653,-13.653c7.53,0 13.653,6.124 13.653,13.653c0,7.53 -6.124,13.653 -13.653,13.653z"/>
   </g>
  </g>
  <g id="svg_4">
   <g id="svg_5">
    <path fill=" #3CBF8A" id="svg_6" d="m116.053,3.493c-15.056,0 -27.307,12.25 -27.307,27.307s12.25,27.307 27.307,27.307s27.307,-12.25 27.307,-27.307s-12.25,-27.307 -27.307,-27.307zm0,40.96c-7.53,0 -13.653,-6.123 -13.653,-13.653c0,-7.53 6.124,-13.653 13.653,-13.653c7.53,0 13.653,6.124 13.653,13.653c0.001,7.53 -6.123,13.653 -13.653,13.653z"/>
   </g>
  </g>
  <g id="svg_7">
   <g id="svg_8">
    <path fill="#fcbd2b" id="svg_9" d="m204.8,3.493c-15.056,0 -27.307,12.25 -27.307,27.307s12.25,27.307 27.307,27.307s27.307,-12.25 27.307,-27.307s-12.251,-27.307 -27.307,-27.307zm0,40.96c-7.53,0 -13.653,-6.123 -13.653,-13.653c0,-7.53 6.124,-13.653 13.653,-13.653c7.53,0 13.653,6.124 13.653,13.653c0,7.53 -6.123,13.653 -13.653,13.653z"/>
   </g>
  </g>
  <g id="svg_10">
   <g id="svg_11">
    <path fill="#2b00ff" id="svg_12" d="m293.547,3.493c-15.056,0 -27.307,12.25 -27.307,27.307s12.25,27.307 27.307,27.307c15.056,0 27.307,-12.25 27.307,-27.307s-12.251,-27.307 -27.307,-27.307zm0,40.96c-7.53,0 -13.653,-6.123 -13.653,-13.653c0,-7.53 6.124,-13.653 13.653,-13.653c7.53,0 13.653,6.124 13.653,13.653c0,7.53 -6.124,13.653 -13.653,13.653z"/>
   </g>
  </g>
  <g id="svg_13">
   <g id="svg_14">
    <path fill="#555" id="svg_15" d="m382.293,3.493c-15.056,0 -27.307,12.25 -27.307,27.307s12.25,27.307 27.307,27.307s27.307,-12.251 27.307,-27.307s-12.25,-27.307 -27.307,-27.307zm0,40.96c-7.53,0 -13.653,-6.123 -13.653,-13.653c0,-7.53 6.123,-13.653 13.653,-13.653c7.53,0 13.653,6.124 13.653,13.653c0.001,7.53 -6.123,13.653 -13.653,13.653z"/>
   </g>
  </g>
  <g id="svg_16"/>
  <g id="svg_17"/>
  <g id="svg_18"/>
  <g id="svg_19"/>
  <g id="svg_20"/>
  <g id="svg_21"/>
  <g id="svg_22"/>
  <g id="svg_23"/>
  <g id="svg_24"/>
  <g id="svg_25"/>
  <g id="svg_26"/>
  <g id="svg_27"/>
  <g id="svg_28"/>
  <g id="svg_29"/>
  <g id="svg_30"/>
 </g>
</svg>